{
.appVersion = "3151";
.formatVersion = 3;
DisplayStrings = (
"ÁÁĂĂÂÂÄÄÀÀĀĀĄĄÅÅǺǺÃÃǼǼĆĆČČÇÇĈĈĊĊÐÐĎĎĐĐÉÉĔĔĚĚÊÊËËĖĖÈÈĒĒĘĘĞĞĜĜĠĠĦĦĤĤÍÍĬĬÎÎÏÏİİÌÌĪĪĮĮĨĨĴĴĹĹĽĽŁŁŃŃŇŇÑÑÓÓŎŎÔÔÖÖÒÒŐŐŌŌǾǾÕÕŔŔŘŘŚŚŠŠŞŞŜŜŦŦŤŤÚÚŬŬÛÛÜÜÙÙŰŰŪŪŲŲŮŮŨŨẂẂŴŴẄẄẀẀÝÝŶŶŸŸỲỲŹŹŽŽŻŻŢŢááăăââääààāāąąååǻǻããǽǽććččççĉĉċċďďđđééĕĕěěêêëëėėèèēēęęğğĝĝġġħħĥĥííĭĭîîïïììīīįįĩĩĵĵĺĺľľłłńńŉŉňňññóóŏŏôôööòòőőōōǿǿõõŕŕřřśśššşşŝŝŧŧťťúúŭŭûûüüùùűűūūţţųųůůũũẃẃŵŵẅẅẁẁýýŷŷÿÿỳỳźźžžżżﬂﬂ"
);
customParameters = (
{
name = descriptions;
value = "";
},
{
name = licenses;
value = "This Font Software is licensed under the SIL Open Font License, Version 1.1. This license is available with a FAQ at: http://scripts.sil.org/OFL";
},
{
name = licenseURL;
value = "http://scripts.sil.org/OFL";
},
{
name = sampleTexts;
value = "";
},
{
name = uniqueID;
value = "EduardoTunni: Imprima: 2012";
},
{
name = versionString;
value = "Version 2.001";
},
{
name = codePageRanges;
value = (
"1252",
"bit 29"
);
},
{
name = openTypeOS2FamilyClass;
value = (
0,
0
);
},
{
name = panose;
value = (
0,
0,
0,
0,
0,
0,
0,
0,
0,
0
);
},
{
name = openTypeOS2SubscriptXOffset;
value = 0;
},
{
name = openTypeOS2SubscriptXSize;
value = 700;
},
{
name = openTypeOS2SubscriptYOffset;
value = 140;
},
{
name = openTypeOS2SubscriptYSize;
value = 650;
},
{
name = openTypeOS2SuperscriptXOffset;
value = 0;
},
{
name = openTypeOS2SuperscriptXSize;
value = 700;
},
{
name = openTypeOS2SuperscriptYOffset;
value = 477;
},
{
name = openTypeOS2SuperscriptYSize;
value = 650;
},
{
name = unicodeRanges;
value = (
0,
1,
2,
3,
5,
7,
31,
33,
35,
38,
45,
60,
62
);
},
{
name = vendorID;
value = TIPO;
},
{
name = trademarks;
value = "Imprima is a trademark of Eduardo Tunni.";
},
{
name = year;
value = 2012;
}
);
date = "2023-02-10 10:27:33 +0000";
familyName = Imprima;
featurePrefixes = (
{
code = "languagesystem DFLT dflt;
languagesystem latn dflt; # Latin default
";
name = Languagesystems;
},
{
code = "#
# Feature definitions
#

###
# OpenType Layout feature definitions

glyphs = (
{
glyphname = A;
layers = (
{
layerId = master01;
shapes = (
{
closed = 1;
nodes = (
(556,0,l),
(327,680,l),
(229,680,l),
(0,0,l),
(83,0,l),
(149,200,l),
(407,200,l),
(473,0,l,{
name = hr00;
})
);
},
{
closed = 1;
nodes = (
(383,272,l),
(172,272,l),
(278,592,l)
);
}
);
width = 556;
}
);
unicode = 65;
},
{
glyphname = AE;
layers = (
{
layerId = master01;
shapes = (
{
closed = 1;
nodes = (
(724,72,l),
(492,72,l),
(453,272,l),
(669,272,l),
(669,344,l),
(439,344,l),
(387,608,l),
(684,608,l),
(684,680,l),
(229,680,l),
(0,0,l),
(83,0,l),
(172,272,l),
(373,272,l),
(425,0,l),
(724,0,l,{
name = hr00;
})
);
},
{
closed = 1;
nodes = (
(309,608,l),
(359,344,l),
(196,344,l),
(283,608,l)
);
}
);
width = 759;
}
);
unicode = 198;
},
{
glyphname = B;
layers = (
{
layerId = master01;
shapes = (
{
closed = 1;
nodes = (
(331,0,ls),
(444,0,o),
(534,90,o),
(534,203,cs),
(534,281,o),
(487,344,o),
(416,371,c),
(468,398,o),
(504,452,o),
(504,516,cs,{
name = hr01;
}),
(504,607,o),
(431,680,o),
(340,680,cs),
(90,680,l),
(90,0,l)
);
},
{
closed = 1;
nodes = (
(400,334,o),
(458,275,o),
(458,203,cs,{
name = hr02;
}),
(458,131,o),
(399,72,o),
(329,72,cs),
(170,72,l),
(170,334,l),
(329,334,ls)
);
},
{
closed = 1;
nodes = (
(383,608,o),
(428,563,o),
(428,507,cs,{
name = hr03;
}),
(428,451,o),
(383,406,o),
(325,406,cs),
(170,406,l),
(170,608,l),
(325,608,ls)
);
}
);
width = 564;
}
);
unicode = 66;
},
{
glyphname = C;
layers = (
{
layerId = master01;
shapes = (
{
closed = 1;
nodes = (
(445,72,o),
(389,57,o),
(336,57,cs),
(206,57,o),
(130,162,o),
(130,340,cs),
(130,518,o),
(206,623,o),
(336,623,cs),
(386,623,o),
(436,609,o),
(479,582,c),
(507,649,l),
(457,679,o),
(396,696,o),
(336,696,cs),
(156,696,o),
(50,564,o),
(50,340,cs),
(50,116,o),
(156,-16,o),
(336,-16,cs),
(402,-16,o),
(469,3,o),
(524,37,c),
(489,99,l,{
name = hr00;
})
);
}
);
width = 534;
}
);
unicode = 67;
},
{
glyphname = D;
layers = (
{
layerId = master01;
shapes = (
{
closed = 1;
nodes = (
(333,0,ls),
(513,0,o),
(621,127,o),
(621,340,cs),
(621,553,o),
(513,680,o),
(333,680,cs),
(90,680,l),
(90,0,l,{
name = hr00;
})
);
},
{
closed = 1;
nodes = (
(463,608,o),
(541,508,o),
(541,340,cs),
(541,172,o),
(463,72,o),
(333,72,cs),
(170,72,l),
(170,608,l),
(333,608,ls)
);
}
);
width = 651;
}
);
unicode = 68;
},
{
glyphname = E;
layers = (
{
layerId = master01;
shapes = (
{
closed = 1;
nodes = (
(468,0,l),
(468,72,l),
(158,72,l),
(158,304,l),
(395,304,l),
(395,376,l),
(158,376,l),
(158,608,l),
(448,608,l),
(448,680,l),
(78,680,l),
(78,0,l,{
name = hr00;
})
);
}
);
width = 510;
}
);
unicode = 69;
},
{
glyphname = F;
layers = (
{
layerId = master01;
shapes = (
{
closed = 1;
nodes = (
(170,0,l),
(170,304,l),
(397,304,l),
(397,376,l),
(170,376,l),
(170,608,l),
(450,608,l),
(450,680,l),
(90,680,l),
(90,0,l,{
name = hr00;
})
);
}
);
width = 460;
}
);
unicode = 70;
},
{
glyphname = G;
layers = (
{
layerId = master01;
shapes = (
{
closed = 1;
nodes = (
(570,376,l),
(341,376,l),
(341,304,l),
(494,304,l),
(494,93,l),
(452,69,o),
(397,57,o),
(336,57,cs),
(206,57,o),
(130,161,o),
(130,340,cs),
(130,518,o),
(206,623,o),
(336,623,cs),
(398,623,o),
(462,608,o),
(514,582,c),
(542,650,l),
(487,680,o),
(415,696,o),
(339,696,cs),
(158,696,o),
(50,564,o),
(50,340,cs),
(50,116,o),
(158,-16,o),
(339,-16,cs),
(421,-16,o),
(495,6,o),
(570,53,c,{
name = hr00;
})
);
}
);
width = 645;
}
);
unicode = 71;
},
{
glyphname = H;
layers = (
{
layerId = master01;
shapes = (
{
closed = 1;
nodes = (
(170,0,l),
(170,303,l),
(494,303,l),
(494,0,l),
(574,0,l),
(574,680,l),
(494,680,l),
(494,377,l),
(170,377,l),
(170,680,l),
(90,680,l),
(90,0,l,{
name = hr00;
})
);
}
);
width = 664;
}
);
unicode = 72;
},
{
glyphname = I;
layers = (
{
layerId = master01;
shapes = (
{
closed = 1;
nodes = (
(170,0,l),
(170,680,l),
(90,680,l),
(90,0,l,{
name = hr00;
})
);
}
);
width = 260;
}
);
unicode = 73;
},
{
glyphname = J;
layers = (
{
layerId = master01;
shapes = (
{
closed = 1;
nodes = (
(49,8,o),
(109,-16,o),
(182,-16,cs),
(286,-16,o),
(352,65,o),
(352,192,cs),
(352,680,l),
(272,680,l),
(272,192,ls),
(272,101,o),
(238,56,o),
(171,56,cs),
(128,56,o),
(82,77,o),
(44,113,c),
(0,57,l,{
name = hr00;
})
);
}
);
width = 427;
}
);
unicode = 74;
},
{
glyphname = K;
layers = (
{
layerId = master01;
shapes = (
{
closed = 1;
nodes = (
(170,0,l),
(170,291,l),
(308,291,ls),
(336,291,o),
(348,282,o),
(361,246,cs),
(460,-16,l,{
name = hr01;
}),
(536,8,l),
(441,260,ls),
(416,326,o),
(382,355,o),
(322,360,c),
(526,680,l),
(437,680,l),
(234,361,l),
(170,361,l),
(170,680,l,{
name = hr02;
}),
(90,680,l),
(90,0,l)
);
}
);
width = 551;
}
);
unicode = 75;
},
{
glyphname = L;
layers = (
{
layerId = master01;
shapes = (
{
closed = 1;
nodes = (
(170,680,l),
(90,680,l),
(90,0,l),
(447,0,l),
(447,72,l),
(170,72,l,{
name = hr00;
})
);
}
);
width = 447;
}
);
unicode = 76;
},
{
glyphname = M;
layers = (
{
layerId = master01;
shapes = (
{
closed = 1;
nodes = (
(160,0,l),
(179,532,l),
(366,106,l),
(449,106,l),
(635,532,l),
(655,0,l),
(735,0,l),
(710,680,l),
(617,680,l),
(407,201,l),
(198,680,l),
(105,680,l),
(80,0,l,{
name = hr00;
})
);
}
);
width = 815;
}
);
unicode = 77;
},
{
glyphname = N;
layers = (
{
layerId = master01;
shapes = (
{
closed = 1;
nodes = (
(170,0,l),
(170,553,l),
(497,0,l),
(590,0,l),
(590,680,l),
(510,680,l),
(510,127,l),
(183,680,l),
(90,680,l),
(90,0,l,{
name = hr00;
})
);
}
);
width = 680;
}
);
unicode = 78;
},
{
glyphname = Eng;
layers = (
{
layerId = master01;
shapes = (
{
closed = 1;
nodes = (
(287,-215,o),
(347,-239,o),
(420,-239,cs),
(524,-239,o),
(590,-158,o),
(590,-31,cs),
(590,680,l),
(510,680,l),
(510,175,l),
(183,680,l),
(90,680,l),
(90,0,l),
(170,0,l),
(170,553,l),
(510,23,l),
(510,-31,ls),
(510,-122,o),
(476,-167,o),
(409,-167,cs),
(366,-167,o),
(320,-146,o),
(282,-110,c),
(238,-166,l,{
name = hr00;
})
);
}
);
width = 680;
}
);
unicode = 330;
},
{
glyphname = O;
layers = (
{
layerId = master01;
shapes = (
{
closed = 1;
nodes = (
(50,116,o),
(156,-16,o),
(336,-16,cs),
(516,-16,o),
(624,117,o),
(624,340,cs),
(624,563,o),
(516,696,o),
(336,696,cs),
(156,696,o),
(50,564,o),
(50,340,cs,{
name = hr00;
})
);
},
{
closed = 1;
nodes = (
(130,518,o),
(206,623,o),
(336,623,cs),
(466,623,o),
(544,517,o),
(544,340,cs),
(544,163,o),
(466,57,o),
(336,57,cs),
(206,57,o),
(130,162,o),
(130,340,cs)
);
}
);
width = 674;
}
);
unicode = 79;
},
{
glyphname = OE;
layers = (
{
layerId = master01;
shapes = (
{
closed = 1;
nodes = (
(130,509,o),
(206,608,o),
(336,608,c),
(405,608,l),
(405,680,l),
(336,680,l),
(156,680,o),
(50,554,o),
(50,340,cs),
(50,126,o),
(156,0,o),
(336,0,c),
(405,0,l),
(405,72,l),
(336,72,l),
(206,72,o),
(130,171,o),
(130,340,cs,{
name = hr00;
})
);
},
{
pos = (305,0);
ref = E;
}
);
width = 815;
}
);
unicode = 338;
},
{
glyphname = P;
layers = (
{
layerId = master01;
shapes = (
{
closed = 1;
nodes = (
(170,0,l),
(170,274,l),
(301,274,ls),
(414,274,o),
(504,364,o),
(504,477,cs),
(504,590,o),
(414,680,o),
(301,680,cs),
(90,680,l),
(90,0,l,{
name = hr00;
})
);
},
{
closed = 1;
nodes = (
(367,607,o),
(425,548,o),
(425,477,cs),
(425,406,o),
(367,347,o),
(298,347,cs),
(170,347,l),
(170,607,l),
(298,607,ls)
);
}
);
width = 509;
}
);
unicode = 80;
},
{
glyphname = Thorn;
layers = (
{
layerId = master01;
shapes = (
{
closed = 1;
nodes = (
(170,0,l),
(170,137,l),
(301,137,ls),
(414,137,o),
(504,227,o),
(504,340,cs),
(504,453,o),
(414,543,o),
(301,543,cs),
(170,543,l),
(170,680,l),
(90,680,l),
(90,0,l,{
name = hr00;
})
);
},
{
closed = 1;
nodes = (
(367,470,o),
(425,411,o),
(425,340,cs),
(425,269,o),
(367,210,o),
(298,210,cs),
(170,210,l),
(170,470,l),
(298,470,ls)
);
}
);
width = 509;
}
);
unicode = 222;
},
{
glyphname = Q;
layers = (
{
layerId = master01;
shapes = (
{
closed = 1;
nodes = (
(479,-105,o),
(455,-112,o),
(435,-112,cs),
(394,-112,o),
(374,-83,o),
(374,-14,c),
(531,3,o),
(624,133,o),
(624,340,cs),
(624,563,o),
(516,696,o),
(336,696,cs),
(156,696,o),
(50,564,o),
(50,340,cs),
(50,132,o),
(141,3,o),
(298,-14,c),
(298,-125,o),
(344,-183,o),
(427,-183,cs),
(463,-183,o),
(506,-169,o),
(546,-143,c),
(516,-89,l,{
name = hr00;
})
);
},
{
closed = 1;
nodes = (
(130,518,o),
(206,623,o),
(336,623,cs),
(466,623,o),
(544,517,o),
(544,340,cs),
(544,163,o),
(466,57,o),
(336,57,cs),
(206,57,o),
(130,162,o),
(130,340,cs)
);
}
);
width = 674;
}
);
unicode = 81;
},
{
glyphname = R;
layers = (
{
layerId = master01;
shapes = (
{
closed = 1;
nodes = (
(170,0,l),
(170,291,l),
(323,291,l),
(347,289,o),
(358,279,o),
(370,246,cs),
(469,-16,l,{
name = hr01;
}),
(545,8,l),
(450,260,ls),
(441,284,o),
(428,299,o),
(405,308,c),
(472,339,o),
(518,406,o),
(518,485,cs),
(518,593,o),
(431,680,o),
(323,680,cs,{
name = hr02;
}),
(90,680,l),
(90,0,l)
);
},
{
closed = 1;
nodes = (
(385,607,o),
(438,552,o),
(438,485,cs),
(438,418,o),
(384,361,o),
(319,361,cs),
(170,361,l),
(170,607,l),
(319,607,ls)
);
}
);
width = 579;
}
);
unicode = 82;
},
{
glyphname = S;
layers = (
{
layerId = master01;
shapes = (
{
closed = 1;
nodes = (
(91,19,o),
(176,-16,o),
(257,-16,cs),
(395,-16,o),
(481,59,o),
(481,180,cs),
(481,439,o),
(137,339,o),
(137,514,cs),
(137,577,o),
(188,621,o),
(259,621,cs),
(314,621,o),
(372,607,o),
(407,585,c),
(447,649,l),
(402,678,o),
(329,696,o),
(260,696,cs),
(139,696,o),
(57,620,o),
(57,509,cs),
(57,264,o),
(401,367,o),
(401,175,cs),
(401,105,o),
(344,59,o),
(258,59,cs),
(189,59,o),
(118,89,o),
(76,136,c),
(30,76,l,{
name = hr00;
})
);
}
);
width = 511;
}
);
unicode = 83;
},
{
glyphname = T;
layers = (
{
layerId = master01;
shapes = (
{
closed = 1;
nodes = (
(275,0,l),
(275,608,l),
(465,608,l),
(465,680,l),
(5,680,l),
(5,608,l),
(195,608,l),
(195,0,l,{
name = hr00;
})
);
}
);
width = 470;
}
);
unicode = 84;
},
{
glyphname = U;
layers = (
{
layerId = master01;
shapes = (
{
closed = 1;
nodes = (
(75,253,ls),
(75,84,o),
(168,-16,o),
(326,-16,cs),
(484,-16,o),
(578,85,o),
(578,253,cs),
(578,680,l),
(498,680,l),
(498,248,ls),
(498,128,o),
(434,57,o),
(326,57,cs),
(219,57,o),
(155,128,o),
(155,248,cs),
(155,680,l),
(75,680,l,{
name = hr00;
})
);
}
);
width = 653;
}
);
unicode = 85;
},
{
glyphname = V;
layers = (
{
layerId = master01;
shapes = (
{
closed = 1;
nodes = (
(0,680,l),
(229,0,l),
(327,0,l),
(556,680,l),
(473,680,l),
(278,88,l),
(83,680,l,{
name = hr00;
})
);
}
);
width = 556;
}
);
unicode = 86;
},
{
glyphname = W;
layers = (
{
layerId = master01;
shapes = (
{
closed = 1;
nodes = (
(642,0,l),
(825,680,l),
(745,680,l),
(596,120,l),
(455,680,l),
(373,680,l),
(223,120,l),
(83,680,l),
(0,680,l),
(175,0,l),
(268,0,l),
(411,533,l),
(549,0,l,{
name = hr00;
})
);
}
);
width = 825;
}
);
unicode = 87;
},
{
glyphname = X;
layers = (
{
layerId = master01;
shapes = (
{
closed = 1;
nodes = (
(240,352,l),
(10,0,l),
(102,0,l),
(286,281,l),
(471,0,l),
(563,0,l),
(331,353,l),
(546,680,l),
(453,680,l),
(285,424,l),
(118,680,l),
(25,680,l,{
name = hr00;
})
);
}
);
width = 573;
}
);
unicode = 88;
},
{
glyphname = Y;
layers = (
{
layerId = master01;
shapes = (
{
closed = 1;
nodes = (
(304,0,l),
(304,235,l),
(528,680,l),
(440,680,l),
(264,314,l),
(88,680,l),
(0,680,l),
(224,235,l),
(224,0,l,{
name = hr00;
})
);
}
);
width = 528;
}
);
unicode = 89;
},
{
glyphname = Z;
layers = (
{
layerId = master01;
shapes = (
{
closed = 1;
nodes = (
(486,72,l),
(110,72,l),
(481,639,l),
(481,680,l),
(40,680,l),
(40,608,l),
(369,608,l),
(15,68,l),
(15,0,l),
(486,0,l,{
name = hr00;
})
);
}
);
width = 501;
}
);
unicode = 90;
},
{
glyphname = a;
layers = (
{
layerId = master01;
shapes = (
{
closed = 1;
nodes = (
(474,100,l),
(474,456,l),
(423,491,o),
(352,514,o),
(291,514,cs),
(148,514,o),
(45,400,o),
(45,241,cs),
(45,84,o),
(120,-14,o),
(241,-14,cs),
(309,-14,o),
(365,22,o),
(400,85,c),
(418,-5,l),
(484,0,l,{
name = hr00;
})
);
},
{
closed = 1;
nodes = (
(173,54,o),
(121,126,o),
(121,241,cs),
(121,361,o),
(192,446,o),
(291,446,cs),
(327,446,o),
(366,437,o),
(398,421,c),
(398,282,ls),
(398,145,o),
(341,54,o),
(256,54,cs)
);
}
);
width = 564;
}
);
unicode = 97;
},
{
glyphname = ae;
layers = (
{
layerId = master01;
shapes = (
{
closed = 1;
nodes = (
(760,242,o),
(762,254,o),
(762,263,cs),
(762,431,o),
(699,514,o),
(573,514,cs),
(503,514,o),
(447,486,o),
(408,437,c),
(383,488,o),
(331,514,o),
(252,514,cs),
(198,514,o),
(123,488,o),
(73,453,c),
(108,398,l),
(150,426,o),
(209,446,o),
(246,446,cs),
(317,446,o),
(350,415,o),
(350,347,cs),
(350,298,l),
(220,286,ls),
(98,274,o),
(39,220,o),
(39,121,cs),
(39,39,o),
(99,-14,o),
(192,-14,cs),
(269,-14,o),
(339,36,o),
(377,107,c),
(413,31,o),
(483,-14,o),
(574,-14,cs),
(648,-14,o),
(704,9,o),
(756,59,c),
(718,108,l),
(683,75,o),
(628,54,o),
(575,54,cs),
(487,54,o),
(431,123,o),
(426,233,c),
(760,233,l,{
name = hr00;
})
);
},
{
closed = 1;
nodes = (
(350,128,o),
(282,54,o),
(196,54,cs),
(152,54,o),
(118,86,o),
(118,129,cs),
(118,181,o),
(156,214,o),
(223,221,cs),
(350,233,l),
(350,222,ls)
);
},
{
closed = 1;
nodes = (
(645,445,o),
(683,397,o),
(686,300,c),
(429,300,l),
(443,392,o),
(494,445,o),
(572,445,cs)
);
}
);
width = 805;
}
);
unicode = 230;
},
{
glyphname = b;
layers = (
{
layerId = master01;
shapes = (
{
closed = 1;
nodes = (
(75,700,l),
(75,196,ls),
(75,61,o),
(140,-14,o),
(258,-14,cs),
(401,-14,o),
(504,100,o),
(504,259,cs),
(504,416,o),
(431,514,o),
(313,514,cs),
(242,514,o),
(186,480,o),
(151,418,c),
(151,700,l,{
name = hr00;
})
);
},
{
closed = 1;
nodes = (
(382,446,o),
(428,376,o),
(428,259,cs),
(428,139,o),
(357,54,o),
(258,54,cs),
(190,54,o),
(151,106,o),
(151,196,cs),
(151,221,ls),
(153,364,o),
(209,446,o),
(304,446,cs)
);
}
);
width = 554;
}
);
unicode = 98;
},
{
glyphname = c;
layers = (
{
layerId = master01;
shapes = (
{
closed = 1;
nodes = (
(367,72,o),
(315,54,o),
(265,54,cs),
(175,54,o),
(121,125,o),
(121,244,cs),
(121,365,o),
(186,446,o),
(283,446,cs),
(318,446,o),
(355,436,o),
(390,417,c),
(409,478,l),
(369,502,o),
(327,514,o),
(281,514,cs),
(137,514,o),
(45,405,o),
(45,234,cs),
(45,84,o),
(131,-14,o),
(262,-14,cs),
(329,-14,o),
(383,6,o),
(433,48,c),
(403,102,l,{
name = hr00;
})
);
}
);
width = 446;
}
);
unicode = 99;
},
{
glyphname = d;
layers = (
{
layerId = master01;
shapes = (
{
closed = 1;
nodes = (
(474,100,l),
(474,700,l),
(398,700,l),
(398,494,l),
(363,507,o),
(325,514,o),
(291,514,cs),
(148,514,o),
(45,400,o),
(45,241,cs),
(45,84,o),
(120,-14,o),
(241,-14,cs),
(309,-14,o),
(365,22,o),
(400,85,c),
(418,-5,l),
(484,0,l,{
name = hr00;
})
);
},
{
closed = 1;
nodes = (
(173,54,o),
(121,126,o),
(121,241,cs),
(121,361,o),
(192,446,o),
(291,446,cs),
(327,446,o),
(366,437,o),
(398,421,c),
(398,282,ls),
(398,145,o),
(341,54,o),
(256,54,cs)
);
}
);
width = 564;
}
);
unicode = 100;
},
{
glyphname = eth;
layers = (
{
layerId = master01;
shapes = (
{
closed = 1;
nodes = (
(213,524,l),
(297,584,l),
(337,549,o),
(368,503,o),
(389,450,c),
(362,464,o),
(325,474,o),
(287,474,cs),
(160,474,o),
(57,362,o),
(57,225,cs),
(57,80,o),
(140,-14,o),
(268,-14,cs),
(400,-14,o),
(489,109,o),
(489,291,cs),
(489,430,o),
(438,545,o),
(350,622,c),
(435,683,l),
(403,727,l),
(305,657,l),
(252,690,o),
(190,713,o),
(119,722,c),
(111,662,l),
(163,657,o),
(210,642,o),
(250,618,c),
(180,568,l,{
name = hr00;
})
);
},
{
closed = 1;
nodes = (
(417,143,o),
(360,52,o),
(268,52,cs),
(185,52,o),
(133,117,o),
(133,220,cs),
(133,326,o),
(206,408,o),
(301,408,cs),
(339,408,o),
(380,393,o),
(410,370,c),
(414,345,o),
(417,318,o),
(417,291,cs)
);
}
);
width = 541;
}
);
unicode = 240;
},
{
glyphname = e;
layers = (
{
layerId = master01;
shapes = (
{
closed = 1;
nodes = (
(326,-14,o),
(384,9,o),
(436,59,c),
(400,108,l),
(364,75,o),
(308,54,o),
(255,54,cs),
(182,54,o),
(133,109,o),
(123,199,c),
(146,197,o),
(170,196,o),
(193,196,cs),
(343,196,o),
(449,268,o),
(449,371,cs),
(449,452,o),
(382,514,o),
(293,514,cs),
(147,514,o),
(45,398,o),
(45,232,cs),
(45,81,o),
(125,-14,o),
(252,-14,cs,{
name = hr00;
})
);
},
{
closed = 1;
nodes = (
(338,446,o),
(373,413,o),
(373,368,cs),
(373,306,o),
(299,262,o),
(195,262,cs),
(172,262,o),
(148,263,o),
(122,267,c),
(133,374,o),
(198,446,o),
(290,446,cs)
);
}
);
width = 484;
}
);
unicode = 101;
},
{
glyphname = f;
layers = (
{
layerId = master01;
shapes = (
{
closed = 1;
nodes = (
(105,435,l),
(105,-160,l),
(181,-160,l),
(181,435,l),
(296,435,l),
(296,500,l),
(181,500,l),
(181,555,ls),
(181,614,o),
(201,643,o),
(242,643,cs),
(262,643,o),
(286,636,o),
(323,620,c),
(353,674,l),
(313,700,o),
(270,714,o),
(234,714,cs),
(151,714,o),
(105,656,o),
(105,551,cs),
(105,500,l),
(40,500,l),
(40,435,l,{
name = hr00;
})
);
}
);
width = 303;
}
);
unicode = 102;
},
{
glyphname = g;
layers = (
{
layerId = master01;
shapes = (
{
closed = 1;
nodes = (
(371,-239,o),
(474,-125,o),
(474,34,cs),
(474,456,l),
(423,491,o),
(352,514,o),
(291,514,cs),
(148,514,o),
(45,400,o),
(45,241,cs),
(45,84,o),
(120,-14,o),
(241,-14,cs),
(308,-14,o),
(362,21,o),
(398,83,c),
(398,35,ls),
(398,-84,o),
(327,-168,o),
(228,-168,cs),
(176,-168,o),
(117,-149,o),
(83,-122,c),
(45,-181,l),
(96,-216,o),
(167,-239,o),
(228,-239,cs,{
name = hr00;
})
);
},
{
closed = 1;
nodes = (
(173,54,o),
(121,126,o),
(121,241,cs),
(121,361,o),
(192,446,o),
(291,446,cs),
(327,446,o),
(366,437,o),
(398,421,c),
(398,274,ls),
(398,141,o),
(339,54,o),
(256,54,cs)
);
}
);
width = 559;
}
);
unicode = 103;
},
{
glyphname = h;
layers = (
{
layerId = master01;
shapes = (
{
closed = 1;
nodes = (
(499,304,ls),
(499,443,o),
(443,514,o),
(335,514,cs),
(265,514,o),
(205,470,o),
(166,401,c),
(166,700,l),
(90,700,l),
(90,0,l),
(166,0,l),
(166,220,ls),
(166,348,o),
(236,446,o),
(322,446,cs),
(389,446,o),
(423,398,o),
(423,304,cs),
(423,0,l),
(499,0,l,{
name = hr00;
})
);
}
);
width = 574;
}
);
unicode = 104;
},
{
glyphname = i;
layers = (
{
layerId = master01;
shapes = (
{
closed = 1;
nodes = (
(80,614,o),
(98,596,o),
(128,596,cs),
(156,596,o),
(176,615,o),
(176,644,cs),
(176,672,o),
(156,692,o),
(128,692,cs),
(98,692,o),
(80,673,o),
(80,644,cs,{
name = hr00;
})
);
},
{
closed = 1;
nodes = (
(166,0,l),
(166,500,l),
(90,500,l),
(90,0,l)
);
}
);
width = 256;
}
);
unicode = 105;
},
{
glyphname = dotlessi;
layers = (
{
layerId = master01;
shapes = (
{
closed = 1;
nodes = (
(166,0,l),
(166,500,l),
(90,500,l),
(90,0,l,{
name = hr00;
})
);
}
);
width = 256;
}
);
unicode = 305;
},
{
glyphname = j;
layers = (
{
layerId = master01;
shapes = (
{
closed = 1;
nodes = (
(82,616,o),
(100,598,o),
(128,598,cs),
(155,598,o),
(174,616,o),
(174,644,cs),
(174,671,o),
(155,690,o),
(128,690,cs),
(100,690,o),
(82,672,o),
(82,644,cs,{
name = hr00;
})
);
},
{
closed = 1;
nodes = (
(-82,-199,l),
(-42,-225,o),
(1,-239,o),
(37,-239,cs),
(120,-239,o),
(166,-181,o),
(166,-76,cs),
(166,500,l),
(90,500,l),
(90,-80,ls),
(90,-139,o),
(70,-168,o),
(29,-168,cs),
(9,-168,o),
(-16,-161,o),
(-52,-145,c)
);
}
);
width = 256;
}
);
unicode = 106;
},
{
glyphname = dotlessj;
layers = (
{
layerId = master01;
shapes = (
{
closed = 1;
nodes = (
(-82,-199,l),
(-42,-225,o),
(1,-239,o),
(37,-239,cs),
(120,-239,o),
(166,-181,o),
(166,-76,cs),
(166,500,l),
(90,500,l),
(90,-80,ls),
(90,-139,o),
(70,-168,o),
(29,-168,cs),
(9,-168,o),
(-16,-161,o),
(-52,-145,c,{
name = hr00;
})
);
}
);
width = 256;
}
);
unicode = 567;
},
{
glyphname = k;
layers = (
{
layerId = master01;
shapes = (
{
closed = 1;
nodes = (
(467,467,o),
(414,514,o),
(324,514,cs),
(261,514,o),
(204,477,o),
(166,421,c),
(166,700,l),
(90,700,l),
(90,0,l),
(166,0,l),
(166,178,l),
(205,182,o),
(241,188,o),
(274,197,c),
(390,0,l),
(478,0,l),
(346,224,l),
(422,261,o),
(467,317,o),
(467,385,cs,{
name = hr00;
})
);
},
{
closed = 1;
nodes = (
(365,446,o),
(391,421,o),
(391,380,cs),
(391,308,o),
(302,257,o),
(166,245,c),
(166,267,ls),
(166,362,o),
(239,446,o),
(322,446,cs)
);
}
);
width = 508;
}
);
unicode = 107;
},
{
glyphname = kgreenlandic;
layers = (
{
layerId = master01;
shapes = (
{
closed = 1;
nodes = (
(162,0,l),
(162,214,l),
(268,214,ls),
(292,214,o),
(299,199,o),
(306,183,cs),
(388,-14,l),
(462,8,l),
(382,198,ls),
(366,236,o),
(346,267,o),
(289,274,c),
(457,500,l),
(371,500,l),
(206,275,l),
(162,275,l),
(162,500,l),
(85,500,l),
(85,0,l)
);
}
);
width = 482;
}
);
unicode = 312;
},
{
glyphname = l;
layers = (
{
layerId = master01;
shapes = (
{
closed = 1;
nodes = (
(75,110,ls),
(75,25,o),
(108,-14,o),
(179,-14,cs),
(211,-14,o),
(247,-2,o),
(283,21,c),
(253,75,l),
(235,63,o),
(213,55,o),
(196,55,cs),
(167,55,o),
(151,75,o),
(151,110,cs),
(151,700,l),
(75,700,l,{
name = hr00;
})
);
}
);
width = 263;
}
);
unicode = 108;
},
{
glyphname = m;
layers = (
{
layerId = master01;
shapes = (
{
closed = 1;
nodes = (
(85,0,l),
(161,0,l),
(161,220,ls),
(161,349,o),
(227,446,o),
(308,446,cs),
(371,446,o),
(403,398,o),
(403,304,cs),
(403,0,l),
(479,0,l),
(479,210,ls),
(479,344,o),
(543,446,o),
(626,446,cs),
(689,446,o),
(721,398,o),
(721,304,cs),
(721,0,l),
(797,0,l),
(797,304,ls),
(797,442,o),
(742,514,o),
(638,514,cs),
(568,514,o),
(507,465,o),
(470,388,c),
(451,471,o),
(400,514,o),
(320,514,cs),
(254,514,o),
(198,471,o),
(160,402,c),
(141,505,l),
(75,500,l),
(85,400,l,{
name = hr00;
})
);
}
);
width = 872;
}
);
unicode = 109;
},
{
glyphname = n;
layers = (
{
layerId = master01;
shapes = (
{
closed = 1;
nodes = (
(85,0,l),
(161,0,l),
(161,220,ls),
(161,348,o),
(231,446,o),
(317,446,cs),
(384,446,o),
(418,398,o),
(418,304,cs),
(418,0,l),
(494,0,l),
(494,304,ls),
(494,443,o),
(438,514,o),
(330,514,cs),
(260,514,o),
(200,470,o),
(161,401,c),
(141,505,l),
(75,500,l),
(85,400,l,{
name = hr00;
})
);
}
);
width = 569;
}
);
unicode = 110;
},
{
glyphname = eng;
layers = (
{
layerId = master01;
shapes = (
{
closed = 1;
nodes = (
(494,443,o),
(438,514,o),
(330,514,cs),
(260,514,o),
(200,470,o),
(161,401,c),
(141,505,l),
(75,500,l),
(85,400,l),
(85,0,l),
(161,0,l),
(161,220,ls),
(161,348,o),
(231,446,o),
(317,446,cs),
(384,446,o),
(418,398,o),
(418,304,cs),
(418,-80,ls),
(418,-139,o),
(398,-168,o),
(357,-168,cs),
(337,-168,o),
(312,-161,o),
(276,-145,c),
(246,-199,l),
(286,-225,o),
(329,-239,o),
(365,-239,cs),
(448,-239,o),
(494,-181,o),
(494,-76,cs),
(494,304,l,{
name = hr00;
})
);
}
);
width = 569;
}
);
unicode = 331;
},
{
glyphname = o;
layers = (
{
layerId = master01;
shapes = (
{
closed = 1;
nodes = (
(50,84,o),
(132,-14,o),
(270,-14,cs),
(408,-14,o),
(491,86,o),
(491,250,cs),
(491,414,o),
(408,514,o),
(270,514,cs),
(132,514,o),
(50,416,o),
(50,250,cs,{
name = hr00;
})
);
},
{
closed = 1;
nodes = (
(126,373,o),
(179,446,o),
(270,446,cs),
(361,446,o),
(415,373,o),
(415,250,cs),
(415,127,o),
(361,54,o),
(270,54,cs),
(179,54,o),
(126,127,o),
(126,250,cs)
);
}
);
width = 541;
}
);
unicode = 111;
},
{
glyphname = oe;
layers = (
{
layerId = master01;
shapes = (
{
closed = 1;
nodes = (
(376,79,o),
(333,54,o),
(270,54,cs),
(179,54,o),
(126,127,o),
(126,250,cs),
(126,373,o),
(179,446,o),
(270,446,cs),
(339,446,o),
(385,413,o),
(403,351,c),
(444,429,l),
(406,485,o),
(347,514,o),
(270,514,cs),
(132,514,o),
(50,416,o),
(50,250,cs),
(50,84,o),
(132,-14,o),
(270,-14,cs),
(345,-14,o),
(404,14,o),
(442,68,c),
(395,129,l,{
name = hr00;
})
);
},
{
pos = (294,0);
ref = e;
}
);
width = 778;
}
);
unicode = 339;
},
{
glyphname = p;
layers = (
{
layerId = master01;
shapes = (
{
closed = 1;
nodes = (
(85,400,l),
(85,-225,l),
(161,-225,l),
(161,5,l),
(196,-7,o),
(233,-14,o),
(268,-14,cs),
(411,-14,o),
(514,100,o),
(514,259,cs),
(514,416,o),
(439,514,o),
(318,514,cs),
(249,514,o),
(194,476,o),
(158,412,c),
(141,505,l),
(75,500,l,{
name = hr00;
})
);
},
{
closed = 1;
nodes = (
(386,446,o),
(438,374,o),
(438,259,cs),
(438,139,o),
(367,54,o),
(268,54,cs),
(232,54,o),
(193,64,o),
(161,82,c),
(161,225,ls),
(161,358,o),
(220,446,o),
(303,446,cs)
);
}
);
width = 564;
}
);
unicode = 112;
},
{
glyphname = thorn;
layers = (
{
layerId = master01;
shapes = (
{
closed = 1;
nodes = (
(85,-225,l),
(161,-225,l),
(161,6,l),
(197,-6,o),
(235,-14,o),
(268,-14,cs),
(411,-14,o),
(514,100,o),
(514,259,cs),
(514,416,o),
(441,514,o),
(323,514,cs),
(252,514,o),
(196,480,o),
(161,418,c),
(161,700,l),
(85,700,l,{
name = hr00;
})
);
},
{
closed = 1;
nodes = (
(392,446,o),
(438,376,o),
(438,259,cs),
(438,139,o),
(367,54,o),
(268,54,cs),
(230,54,o),
(190,63,o),
(161,78,c),
(161,221,ls),
(161,364,o),
(219,446,o),
(314,446,cs)
);
}
);
width = 564;
}
);
unicode = 254;
},
{
glyphname = q;
layers = (
{
layerId = master01;
shapes = (
{
closed = 1;
nodes = (
(479,454,l),
(428,490,o),
(355,513,o),
(296,513,cs),
(153,513,o),
(50,399,o),
(50,240,cs),
(50,83,o),
(123,-15,o),
(241,-15,cs),
(312,-15,o),
(367,17,o),
(403,78,c),
(403,-225,l),
(479,-225,l,{
name = hr00;
})
);
},
{
closed = 1;
nodes = (
(170,53,o),
(126,125,o),
(126,240,cs),
(126,360,o),
(197,445,o),
(296,445,cs),
(334,445,o),
(374,436,o),
(403,421,c),
(403,289,ls),
(403,147,o),
(338,53,o),
(241,53,cs)
);
}
);
width = 569;
}
);
unicode = 113;
},
{
glyphname = r;
layers = (
{
layerId = master01;
shapes = (
{
closed = 1;
nodes = (
(85,0,l),
(161,0,l),
(161,164,ls),
(161,332,o),
(226,425,o),
(342,435,c),
(337,511,l),
(261,511,o),
(200,464,o),
(161,384,c),
(141,505,l),
(75,500,l),
(85,400,l,{
name = hr00;
})
);
}
);
width = 352;
}
);
unicode = 114;
},
{
glyphname = s;
layers = (
{
layerId = master01;
shapes = (
{
closed = 1;
nodes = (
(86,11,o),
(150,-14,o),
(216,-14,cs),
(325,-14,o),
(396,46,o),
(396,138,cs),
(396,220,o),
(354,261,o),
(236,296,cs),
(163,317,o),
(138,337,o),
(138,374,cs),
(138,415,o),
(175,445,o),
(226,445,cs),
(265,445,o),
(316,434,o),
(343,419,c),
(371,480,l),
(338,499,o),
(272,514,o),
(226,514,cs),
(128,514,o),
(62,454,o),
(62,367,cs),
(62,292,o),
(99,256,o),
(214,222,cs),
(291,200,o),
(320,176,o),
(320,135,cs),
(320,87,o),
(278,55,o),
(216,55,cs),
(168,55,o),
(114,76,o),
(81,108,c),
(40,53,l,{
name = hr00;
})
);
}
);
width = 431;
}
);
unicode = 115;
},
{
glyphname = germandbls;
layers = (
{
layerId = master01;
shapes = (
{
closed = 1;
nodes = (
(105,435,l),
(105,-160,l),
(181,-160,l),
(181,555,ls),
(181,613,o),
(226,652,o),
(292,652,cs),
(357,652,o),
(409,615,o),
(409,569,cs),
(409,473,o),
(288,476,o),
(288,351,cs),
(288,209,o),
(492,240,o),
(492,138,cs),
(492,87,o),
(453,56,o),
(389,55,cs),
(341,55,o),
(287,76,o),
(254,108,c),
(213,53,l),
(259,11,o),
(323,-14,o),
(389,-14,cs),
(499,-14,o),
(569,47,o),
(569,142,cs),
(569,296,o),
(365,279,o),
(365,362,cs),
(365,432,o),
(486,448,o),
(486,575,cs),
(486,656,o),
(401,719,o),
(292,719,cs),
(180,719,o),
(105,652,o),
(105,551,cs),
(105,500,l),
(40,500,l),
(40,435,l,{
name = hr00;
})
);
}
);
width = 579;
}
);
unicode = 223;
},
{
glyphname = t;
layers = (
{
layerId = master01;
shapes = (
{
closed = 1;
nodes = (
(105,435,l),
(105,109,ls),
(105,24,o),
(137,-14,o),
(209,-14,cs),
(248,-14,o),
(290,2,o),
(328,32,c),
(300,83,l),
(274,64,o),
(248,54,o),
(226,54,cs),
(197,54,o),
(181,74,o),
(181,109,cs),
(181,435,l),
(298,435,l),
(298,500,l),
(181,500,l),
(181,650,l),
(129,650,l),
(105,500,l),
(29,500,l),
(29,435,l,{
name = hr00;
})
);
}
);
width = 331;
}
);
unicode = 116;
},
{
glyphname = u;
layers = (
{
layerId = master01;
shapes = (
{
closed = 1;
nodes = (
(75,196,ls),
(75,57,o),
(131,-14,o),
(239,-14,cs),
(309,-14,o),
(369,29,o),
(408,99,c),
(428,-5,l),
(494,0,l),
(484,100,l),
(484,500,l),
(408,500,l),
(408,290,ls),
(408,157,o),
(340,54,o),
(252,54,cs),
(185,54,o),
(151,102,o),
(151,196,cs),
(151,500,l),
(75,500,l,{
name = hr00;
})
);
}
);
width = 569;
}
);
unicode = 117;
},
{
glyphname = v;
layers = (
{
layerId = master01;
shapes = (
{
closed = 1;
nodes = (
(5,500,l),
(191,0,l),
(281,0,l),
(467,500,l),
(386,500,l),
(237,87,l),
(87,500,l,{
name = hr00;
})
);
}
);
width = 472;
}
);
unicode = 118;
},
{
glyphname = w;
layers = (
{
layerId = master01;
shapes = (
{
closed = 1;
nodes = (
(503,118,l),
(611,500,l),
(691,500,l),
(550,0,l),
(465,0,l),
(353,369,l),
(241,0,l),
(156,0,l),
(15,500,l),
(95,500,l),
(203,118,l),
(317,500,l),
(389,500,l,{
name = hr00;
})
);
}
);
width = 706;
}
);
unicode = 119;
},
{
glyphname = x;
layers = (
{
layerId = master01;
shapes = (
{
closed = 1;
nodes = (
(172,258,l),
(5,0,l),
(95,0,l),
(217,189,l),
(340,0,l),
(430,0,l),
(266,253,l),
(425,500,l),
(335,500,l),
(220,323,l),
(106,500,l),
(16,500,l,{
name = hr00;
})
);
}
);
width = 435;
}
);
unicode = 120;
},
{
glyphname = y;
layers = (
{
layerId = master01;
shapes = (
{
closed = 1;
nodes = (
(467,500,l),
(387,500,l),
(238,82,l),
(87,500,l),
(5,500,l),
(200,-26,l),
(132,-217,l),
(197,-239,l,{
name = hr00;
})
);
}
);
width = 475;
}
);
unicode = 121;
},
{
glyphname = z;
layers = (
{
layerId = master01;
shapes = (
{
closed = 1;
nodes = (
(271,435,l),
(11,0,l),
(399,0,l),
(399,65,l),
(138,65,l),
(400,500,l),
(42,500,l),
(42,435,l,{
name = hr00;
})
);
}
);
width = 420;
}
);
unicode = 122;
},
{
glyphname = fi;
layers = (
{
layerId = master01;
shapes = (
{
closed = 1;
nodes = (
(403,435,l),
(403,500,l),
(207,500,l),
(207,435,l,{
name = hr00;
})
);
},
{
ref = f;
},
{
pos = (278,0);
ref = dotlessi;
}
);
width = 529;
}
);
unicode = 64257;
},
{
glyphname = ordfeminine;
layers = (
{
layerId = master01;
shapes = (
{
closed = 1;
nodes = (
(296,527,l),
(296,737,l),
(265,759,o),
(218,774,o),
(182,774,cs),
(93,774,o),
(30,705,o),
(30,608,cs),
(30,512,o),
(77,452,o),
(153,452,cs),
(189,452,o),
(219,470,o),
(240,506,c),
(248,456,l),
(303,461,l,{
name = hr00;
})
);
},
{
closed = 1;
nodes = (
(118,507,o),
(92,545,o),
(92,608,cs),
(92,673,o),
(130,720,o),
(182,720,cs),
(200,720,o),
(218,716,o),
(235,708,c),
(235,632,ls),
(235,558,o),
(205,507,o),
(162,507,cs)
);
}
);
width = 355;
}
);
unicode = 170;
},
{
glyphname = ordmasculine;
layers = (
{
layerId = master01;
shapes = (
{
closed = 1;
nodes = (
(35,512,o),
(86,452,o),
(171,452,cs),
(257,452,o),
(309,513,o),
(309,613,cs),
(309,713,o),
(257,774,o),
(171,774,cs),
(86,774,o),
(35,714,o),
(35,613,cs,{
name = hr00;
})
);
},
{
closed = 1;
nodes = (
(97,681,o),
(124,720,o),
(171,720,cs),
(219,720,o),
(247,681,o),
(247,613,cs),
(247,546,o),
(219,507,o),
(171,507,cs),
(124,507,o),
(97,546,o),
(97,613,cs)
);
}
);
width = 344;
}
);
unicode = 186;
},
{
glyphname = pi;
layers = (
{
layerId = master01;
shapes = (
{
closed = 1;
nodes = (
(50,426,l),
(120,426,l),
(120,0,l),
(200,0,l),
(200,426,l),
(407,426,l),
(407,109,ls),
(407,25,o),
(442,-14,o),
(515,-14,c,{
name = hr01;
}),
(532,54,l),
(503,54,o),
(487,74,o),
(487,109,cs),
(487,426,l),
(557,426,l),
(557,500,l),
(50,500,l)
);
}
);
width = 607;
}
);
unicode = 960;
},
{
glyphname = zero;
layers = (
{
layerId = master01;
shapes = (
{
closed = 1;
nodes = (
(29,104,o),
(114,-16,o),
(259,-16,cs),
(402,-16,o),
(489,107,o),
(489,310,cs),
(489,513,o),
(402,636,o),
(259,636,cs),
(114,636,o),
(29,516,o),
(29,310,cs,{
name = hr00;
})
);
},
{
closed = 1;
nodes = (
(107,469,o),
(164,563,o),
(259,563,cs),
(353,563,o),
(411,466,o),
(411,310,cs),
(411,154,o),
(353,57,o),
(259,57,cs),
(164,57,o),
(107,151,o),
(107,310,cs)
);
}
);
width = 518;
}
);
unicode = 48;
},
{
glyphname = one;
layers = (
{
layerId = master01;
shapes = (
{
closed = 1;
nodes = (
(240,539,l),
(240,72,l),
(112,72,l),
(112,0,l),
(432,0,l),
(432,72,l),
(320,72,l),
(320,620,l),
(240,620,l),
(85,570,l),
(103,500,l,{
name = hr00;
})
);
}
);
width = 518;
}
);
unicode = 49;
},
{
glyphname = two;
layers = (
{
layerId = master01;
shapes = (
{
closed = 1;
nodes = (
(52,0,l),
(438,0,l),
(438,72,l),
(161,72,l),
(337,271,ls),
(403,346,o),
(432,408,o),
(432,468,cs),
(432,571,o),
(352,636,o),
(227,636,cs),
(171,636,o),
(108,618,o),
(65,589,c),
(97,527,l),
(121,546,o),
(185,565,o),
(227,565,cs),
(304,565,o),
(352,528,o),
(352,468,cs),
(352,418,o),
(332,380,o),
(272,312,cs),
(52,63,l,{
name = hr00;
})
);
}
);
width = 518;
}
);
unicode = 50;
},
{
glyphname = three;
layers = (
{
layerId = master01;
shapes = (
{
closed = 1;
nodes = (
(85,0,o),
(150,-16,o),
(218,-16,cs),
(348,-16,o),
(441,64,o),
(441,176,cs),
(441,247,o),
(406,300,o),
(344,326,c),
(396,357,o),
(427,405,o),
(427,465,cs,{
name = hr01;
}),
(427,571,o),
(351,636,o),
(226,636,cs),
(170,636,o),
(107,618,o),
(64,589,c),
(96,527,l),
(120,546,o),
(184,565,o),
(226,565,cs),
(303,565,o),
(351,528,o),
(351,468,cs),
(351,397,o),
(280,349,o),
(176,349,cs),
(140,349,l),
(140,280,l),
(235,280,ls),
(314,280,o),
(365,239,o),
(365,174,cs,{
name = hr02;
}),
(365,104,o),
(304,55,o),
(218,55,cs),
(167,55,o),
(106,69,o),
(79,87,c),
(46,27,l)
);
}
);
width = 518;
}
);
unicode = 51;
},
{
glyphname = four;
layers = (
{
layerId = master01;
shapes = (
{
closed = 1;
nodes = (
(410,0,l),
(410,142,l),
(463,142,l),
(463,214,l),
(410,214,l),
(410,450,l),
(332,450,l),
(332,214,l),
(130,214,l),
(296,620,l),
(211,620,l),
(33,183,l),
(33,142,l),
(332,142,l),
(332,0,l,{
name = hr00;
})
);
}
);
width = 518;
}
);
unicode = 52;
},
{
glyphname = five;
layers = (
{
layerId = master01;
shapes = (
{
closed = 1;
nodes = (
(96,290,l),
(243,290,ls),
(322,290,o),
(373,245,o),
(373,174,cs),
(373,104,o),
(312,55,o),
(226,55,cs),
(175,55,o),
(114,69,o),
(87,87,c),
(54,27,l),
(93,0,o),
(158,-16,o),
(226,-16,cs),
(356,-16,o),
(449,64,o),
(449,176,cs),
(449,294,o),
(374,361,o),
(243,361,cs),
(173,361,l),
(181,548,l),
(421,548,l),
(421,620,l),
(109,620,l,{
name = hr00;
})
);
}
);
width = 518;
}
);
unicode = 53;
},
{
glyphname = six;
layers = (
{
layerId = master01;
shapes = (
{
closed = 1;
nodes = (
(360,565,o),
(400,550,o),
(428,520,c),
(463,581,l),
(427,617,o),
(374,636,o),
(310,636,cs),
(152,636,o),
(50,488,o),
(50,256,cs),
(50,89,o),
(135,-16,o),
(270,-16,cs),
(398,-16,o),
(482,66,o),
(482,192,cs),
(482,304,o),
(403,378,o),
(283,378,cs),
(230,378,o),
(176,355,o),
(130,316,c),
(142,468,o),
(210,565,o),
(309,565,cs,{
name = hr00;
})
);
},
{
closed = 1;
nodes = (
(356,308,o),
(404,259,o),
(404,184,cs),
(404,107,o),
(350,55,o),
(271,55,cs),
(187,55,o),
(138,115,o),
(129,229,c),
(171,282,o),
(221,308,o),
(281,308,cs)
);
}
);
width = 518;
}
);
unicode = 54;
},
{
glyphname = seven;
layers = (
{
layerId = master01;
shapes = (
{
closed = 1;
nodes = (
(58,620,l),
(58,548,l),
(368,548,l),
(137,0,l),
(224,0,l),
(466,579,l),
(466,620,l,{
name = hr00;
})
);
}
);
width = 518;
}
);
unicode = 55;
},
{
glyphname = eight;
layers = (
{
layerId = master01;
shapes = (
{
closed = 1;
nodes = (
(43,59,o),
(134,-16,o),
(259,-16,cs),
(384,-16,o),
(475,59,o),
(475,163,cs),
(475,240,o),
(441,292,o),
(367,326,c),
(421,359,o),
(452,409,o),
(452,464,cs,{
name = hr01;
}),
(452,569,o),
(377,636,o),
(259,636,cs),
(142,636,o),
(66,568,o),
(66,464,cs),
(66,408,o),
(95,362,o),
(153,329,c),
(82,296,o),
(43,236,o),
(43,163,cs)
);
},
{
closed = 1;
nodes = (
(399,100,o),
(341,55,o),
(259,55,cs),
(177,55,o),
(119,100,o),
(119,163,cs),
(119,218,o),
(153,265,o),
(220,300,c),
(295,273,o),
(399,266,o),
(399,163,cs)
);
},
{
closed = 1;
nodes = (
(142,526,o),
(188,565,o),
(259,565,cs),
(330,565,o),
(376,527,o),
(376,469,cs),
(376,418,o),
(349,381,o),
(291,350,c),
(182,378,o),
(142,409,o),
(142,466,cs,{
name = hr03;
})
);
}
);
width = 518;
}
);
unicode = 56;
},
{
glyphname = nine;
layers = (
{
layerId = master01;
shapes = (
{
closed = 1;
nodes = (
(158,55,o),
(111,70,o),
(81,100,c),
(40,39,l),
(83,2,o),
(142,-16,o),
(217,-16,cs),
(369,-16,o),
(468,126,o),
(468,344,cs),
(468,530,o),
(388,636,o),
(248,636,cs),
(121,636,o),
(36,552,o),
(36,426,cs),
(36,314,o),
(114,235,o),
(226,235,cs),
(282,235,o),
(340,257,o),
(388,295,c),
(376,148,o),
(312,55,o),
(218,55,cs,{
name = hr00;
})
);
},
{
closed = 1;
nodes = (
(160,305,o),
(114,354,o),
(114,426,cs),
(114,509,o),
(168,565,o),
(248,565,cs),
(329,565,o),
(379,500,o),
(388,384,c),
(346,335,o),
(285,305,o),
(226,305,cs)
);
}
);
width = 518;
}
);
unicode = 57;
},
{
glyphname = fraction;
layers = (
{
layerId = master01;
shapes = (
{
closed = 1;
nodes = (
(34,-85,l),
(300,705,l),
(226,705,l),
(-40,-85,l,{
name = hr00;
})
);
}
);
width = 260;
}
);
unicode = 8260;
},
{
glyphname = onehalf;
layers = (
{
layerId = master01;
shapes = (
{
closed = 1;
nodes = (
(162,554,l),
(162,301,l),
(88,301,l),
(88,244,l),
(291,244,l),
(291,301,l),
(226,301,l),
(226,620,l),
(168,620,l),
(70,589,l),
(85,532,l,{
name = hr00;
})
);
},
{
closed = 1;
nodes = (
(478,0,l),
(720,0,l),
(720,57,l),
(569,57,l),
(659,161,ls),
(698,205,o),
(716,243,o),
(716,280,cs),
(716,344,o),
(666,386,o),
(588,386,cs),
(554,386,o),
(516,374,o),
(483,353,c),
(510,299,l),
(519,311,o),
(564,328,o),
(588,328,cs),
(628,328,o),
(652,310,o),
(652,280,cs),
(652,254,o),
(641,233,o),
(607,194,cs),
(478,47,l)
);
},
{
pos = (286,67);
ref = fraction;
scale = (0.7824,0.7848);
}
);
width = 780;
}
);
unicode = 189;
},
{
glyphname = onequarter;
layers = (
{
layerId = master01;
shapes = (
{
closed = 1;
nodes = (
(162,554,l),
(162,301,l),
(88,301,l),
(88,244,l),
(291,244,l),
(291,301,l),
(226,301,l),
(226,620,l),
(168,620,l),
(70,589,l),
(85,532,l,{
name = hr00;
})
);
},
{
closed = 1;
nodes = (
(452,111,l),
(452,78,l),
(625,78,l),
(625,-4,l),
(688,-4,l),
(688,78,l),
(719,78,l),
(719,136,l),
(688,136,l),
(688,273,l),
(625,273,l),
(625,136,l),
(529,136,l),
(626,372,l),
(559,372,l)
);
},
{
pos = (292,67);
ref = fraction;
scale = (0.7824,0.7848);
}
);
width = 780;
}
);
unicode = 188;
},
{
glyphname = threequarters;
layers = (
{
layerId = master01;
shapes = (
{
closed = 1;
nodes = (
(76,245,o),
(118,234,o),
(158,234,cs),
(238,234,o),
(297,285,o),
(297,354,cs),
(297,392,o),
(269,431,o),
(234,443,c),
(265,455,o),
(288,488,o),
(288,522,cs),
(288,589,o),
(240,630,o),
(163,630,cs),
(129,630,o),
(91,618,o),
(58,597,c),
(85,543,l),
(107,561,o),
(136,572,o),
(163,572,cs),
(203,572,o),
(227,554,o),
(227,524,cs),
(227,487,o),
(189,462,o),
(134,462,cs),
(104,462,l),
(104,407,l),
(168,407,ls),
(209,407,o),
(235,386,o),
(235,353,cs),
(235,317,o),
(203,291,o),
(158,291,cs),
(131,291,o),
(89,303,o),
(73,315,c),
(47,264,l,{
name = hr00;
})
);
},
{
closed = 1;
nodes = (
(452,111,l),
(452,78,l),
(625,78,l),
(625,-4,l),
(688,-4,l),
(688,78,l),
(719,78,l),
(719,136,l),
(688,136,l),
(688,273,l),
(625,273,l),
(625,136,l),
(529,136,l),
(626,372,l),
(559,372,l)
);
},
{
pos = (292,67);
ref = fraction;
scale = (0.7824,0.7848);
}
);
width = 780;
}
);
unicode = 190;
},
{
glyphname = onesuperior;
layers = (
{
layerId = master01;
shapes = (
{
closed = 1;
nodes = (
(143,554,l),
(143,301,l),
(69,301,l),
(69,244,l),
(272,244,l),
(272,301,l),
(207,301,l),
(207,620,l),
(149,620,l),
(51,589,l),
(66,532,l,{
name = hr00;
})
);
}
);
width = 331;
}
);
unicode = 185;
},
{
glyphname = twosuperior;
layers = (
{
layerId = master01;
shapes = (
{
closed = 1;
nodes = (
(34,244,l),
(276,244,l),
(276,301,l),
(125,301,l),
(215,405,ls),
(254,449,o),
(272,487,o),
(272,524,cs),
(272,588,o),
(222,630,o),
(144,630,cs),
(110,630,o),
(72,618,o),
(39,597,c),
(66,543,l),
(75,555,o),
(120,572,o),
(144,572,cs),
(184,572,o),
(208,554,o),
(208,524,cs),
(208,498,o),
(197,477,o),
(163,438,cs),
(34,291,l,{
name = hr00;
})
);
}
);
width = 331;
}
);
unicode = 178;
},
{
glyphname = threesuperior;
layers = (
{
layerId = master01;
shapes = (
{
closed = 1;
nodes = (
(57,245,o),
(99,234,o),
(139,234,cs),
(219,234,o),
(278,285,o),
(278,354,cs),
(278,392,o),
(250,431,o),
(215,443,c),
(246,455,o),
(269,488,o),
(269,522,cs),
(269,589,o),
(221,630,o),
(144,630,cs),
(110,630,o),
(72,618,o),
(39,597,c),
(66,543,l),
(88,561,o),
(117,572,o),
(144,572,cs),
(184,572,o),
(208,554,o),
(208,524,cs),
(208,487,o),
(170,462,o),
(115,462,cs),
(85,462,l),
(85,407,l),
(149,407,ls),
(190,407,o),
(216,386,o),
(216,353,cs),
(216,317,o),
(184,291,o),
(139,291,cs),
(112,291,o),
(70,303,o),
(54,315,c),
(28,264,l,{
name = hr00;
})
);
}
);
width = 331;
}
);
unicode = 179;
},
{
glyphname = period;
layers = (
{
layerId = master01;
shapes = (
{
closed = 1;
nodes = (
(50,7,o),
(71,-14,o),
(105,-14,cs),
(138,-14,o),
(160,8,o),
(160,41,cs),
(160,74,o),
(138,96,o),
(105,96,cs),
(71,96,o),
(50,74,o),
(50,41,cs,{
name = hr00;
})
);
}
);
width = 210;
}
);
unicode = 46;
},
{
glyphname = comma;
layers = (
{
layerId = master01;
shapes = (
{
closed = 1;
nodes = (
(66,-136,l),
(160,73,l),
(151,86,o),
(129,96,o),
(108,96,cs),
(73,96,o),
(52,77,o),
(49,41,cs),
(33,-126,l,{
name = hr00;
})
);
}
);
width = 210;
}
);
unicode = 44;
},
{
glyphname = ellipsis;
layers = (
{
layerId = master01;
shapes = (
{
closed = 1;
nodes = (
(50,7,o),
(71,-14,o),
(105,-14,cs),
(138,-14,o),
(160,8,o),
(160,41,cs),
(160,74,o),
(138,96,o),
(105,96,cs),
(71,96,o),
(50,74,o),
(50,41,cs,{
name = hr00;
})
);
},
{
closed = 1;
nodes = (
(260,7,o),
(281,-14,o),
(315,-14,cs),
(348,-14,o),
(370,8,o),
(370,41,cs),
(370,74,o),
(348,96,o),
(315,96,cs),
(281,96,o),
(260,74,o),
(260,41,cs)
);
},
{
closed = 1;
nodes = (
(470,7,o),
(491,-14,o),
(525,-14,cs),
(558,-14,o),
(580,8,o),
(580,41,cs),
(580,74,o),
(558,96,o),
(525,96,cs),
(491,96,o),
(470,74,o),
(470,41,cs)
);
}
);
width = 630;
}
);
unicode = 8230;
},
{
glyphname = exclam;
layers = (
{
layerId = master01;
shapes = (
{
closed = 1;
nodes = (
(168,180,l),
(178,660,l),
(92,660,l),
(102,180,l,{
name = hr00;
})
);
},
{
closed = 1;
nodes = (
(80,7,o),
(101,-14,o),
(135,-14,cs),
(168,-14,o),
(190,8,o),
(190,41,cs),
(190,74,o),
(168,96,o),
(135,96,cs),
(101,96,o),
(80,74,o),
(80,41,cs)
);
}
);
width = 270;
}
);
unicode = 33;
},
{
glyphname = exclamdown;
layers = (
{
layerId = master01;
shapes = (
{
closed = 1;
nodes = (
(80,424,o),
(101,403,o),
(135,403,cs),
(168,403,o),
(190,425,o),
(190,458,cs),
(190,491,o),
(168,513,o),
(135,513,cs),
(101,513,o),
(80,491,o),
(80,458,c,{
name = hr00;
})
);
},
{
closed = 1;
nodes = (
(178,-161,l),
(168,319,l),
(102,319,l),
(92,-161,l)
);
}
);
width = 270;
}
);
unicode = 161;
},
{
glyphname = question;
layers = (
{
layerId = master01;
shapes = (
{
closed = 1;
nodes = (
(175,247,ls),
(175,295,o),
(198,332,o),
(255,372,cs),
(328,424,o),
(354,463,o),
(354,525,cs),
(354,615,o),
(283,674,o),
(175,674,cs),
(109,674,o),
(45,650,o),
(0,608,c),
(42,552,l),
(73,585,o),
(122,604,o),
(172,604,cs),
(237,604,o),
(278,573,o),
(278,525,cs),
(278,488,o),
(262,464,o),
(212,428,cs),
(132,369,o),
(105,323,o),
(105,247,cs),
(105,180,l),
(175,180,l,{
name = hr00;
})
);
},
{
closed = 1;
nodes = (
(85,7,o),
(106,-14,o),
(140,-14,cs),
(173,-14,o),
(195,8,o),
(195,41,cs),
(195,74,o),
(173,96,o),
(140,96,cs),
(106,96,o),
(85,74,o),
(85,41,cs)
);
}
);
width = 354;
}
);
unicode = 63;
},
{
glyphname = bullet;
layers = (
{
layerId = master01;
shapes = (
{
closed = 1;
nodes = (
(30,228,o),
(68,190,o),
(127,190,cs),
(185,190,o),
(224,228,o),
(224,287,cs),
(224,345,o),
(185,384,o),
(127,384,cs),
(68,384,o),
(30,346,o),
(30,287,cs,{
name = hr00;
})
);
}
);
width = 254;
}
);
unicode = 8226;
},
{
glyphname = asterisk;
layers = (
{
layerId = master01;
shapes = (
{
closed = 1;
nodes = (
(217,438,l),
(306,340,l),
(349,370,l),
(283,486,l),
(403,540,l),
(388,590,l),
(257,563,l),
(283,486,l,{
name = hr00;
})
);
},
{
closed = 1;
nodes = (
(151,486,l),
(85,371,l),
(127,340,l),
(217,438,l)
);
},
{
closed = 1;
nodes = (
(176,563,l),
(46,590,l),
(30,541,l),
(151,486,l)
);
},
{
closed = 1;
nodes = (
(257,563,l),
(242,695,l),
(191,695,l),
(176,563,l)
);
}
);
width = 433;
}
);
unicode = 42;
},
{
glyphname = numbersign;
layers = (
{
layerId = master01;
shapes = (
{
closed = 1;
nodes = (
(357,-26,l),
(385,171,l),
(492,171,l),
(501,233,l),
(394,233,l),
(416,386,l),
(524,386,l),
(532,449,l),
(425,449,l),
(454,646,l),
(386,646,l),
(358,449,l),
(199,449,l),
(228,646,l),
(160,646,l),
(131,449,l),
(25,449,l),
(17,386,l),
(122,386,l),
(100,233,l),
(-6,233,l),
(-14,171,l),
(91,171,l),
(63,-26,l),
(131,-26,l),
(159,171,l),
(318,171,l),
(290,-26,l,{
name = hr00;
})
);
},
{
closed = 1;
nodes = (
(349,386,l),
(327,233,l),
(168,233,l),
(190,386,l)
);
}
);
width = 518;
}
);
unicode = 35;
},
{
glyphname = slash;
layers = (
{
layerId = master01;
shapes = (
{
closed = 1;
nodes = (
(42,-92,l),
(342,772,l),
(269,772,l),
(-30,-92,l,{
name = hr00;
})
);
}
);
width = 312;
}
);
unicode = 47;
},
{
glyphname = backslash;
layers = (
{
layerId = master01;
shapes = (
{
closed = 1;
nodes = (
(42,772,l),
(342,-92,l),
(269,-92,l),
(-30,772,l,{
name = hr00;
})
);
}
);
width = 312;
}
);
unicode = 92;
},
{
glyphname = hyphen;
layers = (
{
layerId = master01;
shapes = (
{
closed = 1;
nodes = (
(358,292,l),
(50,292,l),
(50,220,l),
(358,220,l,{
name = hr00;
})
);
}
);
width = 408;
}
);
unicode = 45;
},
{
glyphname = endash;
layers = (
{
layerId = master01;
shapes = (
{
closed = 1;
nodes = (
(574,292,l),
(50,292,l),
(50,220,l),
(574,220,l,{
name = hr00;
})
);
}
);
width = 624;
}
);
unicode = 8211;
},
{
glyphname = emdash;
layers = (
{
layerId = master01;
shapes = (
{
closed = 1;
nodes = (
(836,292,l),
(50,292,l),
(50,220,l),
(836,220,l,{
name = hr00;
})
);
}
);
width = 886;
}
);
unicode = 8212;
},
{
glyphname = parenleft;
layers = (
{
layerId = master01;
shapes = (
{
closed = 1;
nodes = (
(180,21,o),
(138,185,o),
(138,310,cs),
(138,435,o),
(180,599,o),
(231,670,c),
(175,713,l),
(104,617,o),
(60,462,o),
(60,310,cs),
(60,157,o),
(105,1,o),
(175,-93,c),
(231,-50,l,{
name = hr00;
})
);
}
);
width = 246;
}
);
unicode = 40;
},
{
glyphname = parenright;
layers = (
{
layerId = master01;
shapes = (
{
closed = 1;
nodes = (
(66,21,o),
(108,185,o),
(108,310,cs),
(108,435,o),
(66,599,o),
(15,670,c),
(71,713,l),
(142,617,o),
(186,462,o),
(186,310,cs),
(186,157,o),
(141,1,o),
(71,-93,c),
(15,-50,l,{
name = hr00;
})
);
}
);
width = 246;
}
);
unicode = 41;
},
{
glyphname = braceleft;
layers = (
{
layerId = master01;
shapes = (
{
closed = 1;
nodes = (
(262,-60,l),
(170,-60,ls),
(121,-60,o),
(90,-29,o),
(90,20,cs),
(90,239,ls),
(90,273,o),
(73,286,o),
(30,286,c),
(30,336,l),
(73,336,o),
(90,349,o),
(90,383,cs),
(90,602,ls),
(90,650,o),
(121,682,o),
(170,682,cs),
(262,682,l),
(262,622,l),
(187,622,ls),
(176,622,o),
(170,615,o),
(170,605,cs),
(170,372,ls),
(170,336,o),
(151,314,o),
(121,314,c),
(121,308,l),
(151,308,o),
(170,286,o),
(170,250,cs),
(170,17,ls),
(170,6,o),
(176,0,o),
(187,0,cs),
(262,0,l,{
name = hr00;
})
);
}
);
width = 277;
}
);
unicode = 123;
},
{
glyphname = braceright;
layers = (
{
layerId = master01;
shapes = (
{
closed = 1;
nodes = (
(15,-60,l),
(107,-60,ls),
(155,-60,o),
(187,-29,o),
(187,20,cs),
(187,239,ls),
(187,273,o),
(204,286,o),
(247,286,c),
(247,336,l),
(204,336,o),
(187,349,o),
(187,383,cs),
(187,602,ls),
(187,650,o),
(155,682,o),
(107,682,cs),
(15,682,l),
(15,622,l),
(90,622,ls),
(100,622,o),
(107,615,o),
(107,605,cs),
(107,372,ls),
(107,336,o),
(126,314,o),
(156,314,c),
(156,308,l),
(126,308,o),
(107,286,o),
(107,250,cs),
(107,17,ls),
(107,6,o),
(100,0,o),
(90,0,cs),
(15,0,l,{
name = hr00;
})
);
}
);
width = 277;
}
);
unicode = 125;
},
{
glyphname = bracketleft;
layers = (
{
layerId = master01;
shapes = (
{
closed = 1;
nodes = (
(90,682,l),
(90,-60,l),
(261,-60,l),
(261,0,l),
(170,0,l),
(170,622,l),
(262,622,l),
(262,682,l,{
name = hr00;
})
);
}
);
width = 277;
}
);
unicode = 91;
},
{
glyphname = bracketright;
layers = (
{
layerId = master01;
shapes = (
{
closed = 1;
nodes = (
(187,682,l),
(187,-60,l),
(16,-60,l),
(16,0,l),
(107,0,l),
(107,622,l),
(15,622,l),
(15,682,l,{
name = hr00;
})
);
}
);
width = 277;
}
);
unicode = 93;
},
{
glyphname = quotesinglbase;
layers = (
{
layerId = master01;
shapes = (
{
closed = 1;
nodes = (
(110,-34,ls),
(135,13,o),
(145,36,o),
(145,49,cs),
(145,82,o),
(120,96,o),
(61,96,c),
(20,-129,l),
(52,-140,l,{
name = hr00;
})
);
}
);
width = 165;
}
);
unicode = 8218;
},
{
glyphname = quotedblbase;
layers = (
{
layerId = master01;
shapes = (
{
closed = 1;
nodes = (
(240,-34,ls),
(265,13,o),
(275,36,o),
(275,49,cs),
(275,82,o),
(250,96,o),
(191,96,c),
(150,-129,l),
(182,-140,l,{
name = hr00;
})
);
},
{
closed = 1;
nodes = (
(110,-34,ls),
(135,13,o),
(145,36,o),
(145,49,cs),
(145,82,o),
(120,96,o),
(61,96,c),
(20,-129,l),
(52,-140,l)
);
}
);
width = 295;
}
);
unicode = 8222;
},
{
glyphname = quotedblleft;
layers = (
{
layerId = master01;
shapes = (
{
closed = 1;
nodes = (
(185,574,ls),
(160,527,o),
(150,504,o),
(150,491,cs),
(150,458,o),
(175,444,o),
(234,444,c),
(275,669,l),
(243,680,l,{
name = hr00;
})
);
},
{
closed = 1;
nodes = (
(55,574,ls),
(30,527,o),
(20,504,o),
(20,491,cs),
(20,458,o),
(45,444,o),
(104,444,c),
(145,669,l),
(113,680,l)
);
}
);
width = 295;
}
);
unicode = 8220;
},
{
glyphname = quotedblright;
layers = (
{
layerId = master01;
shapes = (
{
closed = 1;
nodes = (
(240,550,ls),
(265,597,o),
(275,620,o),
(275,633,cs),
(275,666,o),
(250,680,o),
(191,680,c),
(150,455,l),
(182,444,l,{
name = hr00;
})
);
},
{
closed = 1;
nodes = (
(110,550,ls),
(135,597,o),
(145,620,o),
(145,633,cs),
(145,666,o),
(120,680,o),
(61,680,c),
(20,455,l),
(52,444,l)
);
}
);
width = 295;
}
);
unicode = 8221;
},
{
glyphname = quoteleft;
layers = (
{
layerId = master01;
shapes = (
{
closed = 1;
nodes = (
(55,574,ls),
(30,527,o),
(20,504,o),
(20,491,cs),
(20,458,o),
(45,444,o),
(104,444,c),
(145,669,l),
(113,680,l,{
name = hr00;
})
);
}
);
width = 165;
}
);
unicode = 8216;
},
{
glyphname = quoteright;
layers = (
{
layerId = master01;
shapes = (
{
closed = 1;
nodes = (
(110,550,ls),
(135,597,o),
(145,620,o),
(145,633,cs),
(145,666,o),
(120,680,o),
(61,680,c),
(20,455,l),
(52,444,l,{
name = hr00;
})
);
}
);
width = 165;
}
);
unicode = 8217;
},
{
glyphname = guillemotleft;
layers = (
{
layerId = master01;
shapes = (
{
closed = 1;
nodes = (
(189,227,o),
(196,211,o),
(211,194,cs),
(316,70,l),
(347,85,l),
(282,242,l),
(347,399,l),
(316,414,l),
(211,290,ls),
(196,272,o),
(189,257,o),
(189,242,cs,{
name = hr00;
})
);
},
{
closed = 1;
nodes = (
(30,227,o),
(37,211,o),
(52,194,cs),
(157,70,l),
(188,85,l),
(123,242,l),
(188,399,l),
(157,414,l),
(52,290,ls),
(37,272,o),
(30,257,o),
(30,242,cs)
);
}
);
width = 377;
}
);
unicode = 171;
},
{
glyphname = guillemotright;
layers = (
{
layerId = master01;
shapes = (
{
closed = 1;
nodes = (
(347,227,o),
(340,211,o),
(325,194,cs),
(220,70,l),
(189,85,l),
(254,242,l),
(189,399,l),
(220,414,l),
(325,290,ls),
(340,272,o),
(347,257,o),
(347,242,cs,{
name = hr00;
})
);
},
{
closed = 1;
nodes = (
(188,227,o),
(181,211,o),
(166,194,cs),
(61,70,l),
(30,85,l),
(95,242,l),
(30,399,l),
(61,414,l),
(166,290,ls),
(181,272,o),
(188,257,o),
(188,242,cs)
);
}
);
width = 377;
}
);
unicode = 187;
},
{
glyphname = guilsinglleft;
layers = (
{
layerId = master01;
shapes = (
{
closed = 1;
nodes = (
(30,227,o),
(37,211,o),
(52,194,cs),
(157,70,l),
(188,85,l),
(123,242,l),
(188,399,l),
(157,414,l),
(52,290,ls),
(37,272,o),
(30,257,o),
(30,242,cs,{
name = hr00;
})
);
}
);
width = 218;
}
);
unicode = 8249;
},
{
glyphname = guilsinglright;
layers = (
{
layerId = master01;
shapes = (
{
closed = 1;
nodes = (
(188,227,o),
(181,211,o),
(166,194,cs),
(61,70,l),
(30,85,l),
(95,242,l),
(30,399,l),
(61,414,l),
(166,290,ls),
(181,272,o),
(188,257,o),
(188,242,cs,{
name = hr00;
})
);
}
);
width = 218;
}
);
unicode = 8250;
},
{
glyphname = quotedbl;
layers = (
{
layerId = master01;
shapes = (
{
closed = 1;
nodes = (
(253,457,l),
(263,680,l),
(181,680,l),
(191,457,l,{
name = hr00;
})
);
},
{
closed = 1;
nodes = (
(112,457,l),
(122,680,l),
(40,680,l),
(50,457,l)
);
}
);
width = 303;
}
);
unicode = 34;
},
{
glyphname = quotesingle;
layers = (
{
layerId = master01;
shapes = (
{
closed = 1;
nodes = (
(112,457,l),
(122,680,l),
(40,680,l),
(50,457,l,{
name = hr00;
})
);
}
);
width = 162;
}
);
unicode = 39;
},
{
glyphname = florin;
layers = (
{
layerId = master01;
shapes = (
{
closed = 1;
nodes = (
(190,268,l),
(190,-17,ls),
(190,-76,o),
(170,-105,o),
(129,-105,cs),
(109,-105,o),
(84,-98,o),
(48,-82,c),
(18,-136,l),
(58,-162,o),
(101,-176,o),
(137,-176,cs),
(218,-176,o),
(261,-120,o),
(261,-13,cs),
(261,268,l),
(398,268,l),
(398,328,l),
(261,328,l),
(261,352,ls),
(261,497,o),
(308,571,o),
(400,571,cs),
(418,571,o),
(435,569,o),
(455,566,c),
(470,631,l),
(448,634,o),
(428,636,o),
(408,636,cs),
(266,636,o),
(190,537,o),
(190,352,cs),
(190,328,l),
(55,328,l),
(55,268,l,{
name = hr00;
})
);
}
);
width = 518;
}
);
unicode = 402;
},
{
glyphname = apple;
layers = (
{
layerId = master01;
shapes = (
{
closed = 1;
nodes = (
(558,-88,o),
(561,-88,o),
(566,-88,cs),
(574,-88,o),
(581,-89,o),
(589,-89,cs),
(615,-89,o),
(617,-70,o),
(634,-60,cs),
(649,-52,o),
(670,-51,o),
(683,-42,cs),
(696,-33,o),
(701,-11,o),
(713,1,cs),
(723,11,o),
(739,12,o),
(748,23,cs),
(759,36,o),
(758,60,o),
(766,74,cs),
(776,91,o),
(800,92,o),
(800,120,cs),
(800,130,o),
(798,141,o),
(798,152,cs),
(798,177,o),
(820,180,o),
(823,200,c),
(823,214,o),
(812,229,o),
(812,244,cs),
(812,257,o),
(823,269,o),
(823,283,cs),
(823,305,o),
(799,319,o),
(799,344,cs),
(799,352,o),
(800,360,o),
(800,369,cs),
(800,397,o),
(775,400,o),
(764,418,cs),
(758,428,o),
(763,450,o),
(757,460,cs),
(746,479,o),
(720,483,o),
(706,496,cs),
(694,508,o),
(696,526,o),
(683,535,cs),
(669,545,o),
(653,542,o),
(638,550,cs),
(619,560,o),
(617,586,o),
(590,586,cs),
(580,586,o),
(570,583,o),
(562,583,cs),
(538,583,o),
(531,608,o),
(505,608,cs),
(491,608,o),
(474,596,o),
(460,596,cs),
(447,596,o),
(429,608,o),
(416,608,cs),
(394,608,o),
(386,585,o),
(361,585,cs),
(352,585,o),
(343,587,o),
(335,587,cs),
(310,586,o),
(303,558,o),
(286,549,cs),
(270,541,o),
(248,543,o),
(235,532,cs),
(224,522,o),
(220,501,o),
(210,491,cs),
(199,480,o),
(178,480,o),
(170,467,cs),
(163,456,o),
(166,435,o),
(159,424,cs),
(149,407,o),
(124,401,o),
(124,376,cs),
(124,368,o),
(125,359,o),
(125,351,cs),
(125,332,o),
(100,311,o),
(100,290,cs),
(100,275,o),
(112,265,o),
(112,248,cs),
(112,233,o),
(100,218,o),
(100,204,cs),
(100,183,o),
(125,168,o),
(125,149,cs),
(125,141,o),
(122,133,o),
(122,124,cs),
(122,98,o),
(148,87,o),
(156,75,cs),
(167,57,o),
(160,46,o),
(171,28,cs),
(181,12,o),
(197,15,o),
(210,4,cs),
(223,-7,o),
(222,-31,o),
(240,-42,cs),
(256,-52,o),
(263,-43,o),
(286,-55,cs),
(299,-62,o),
(311,-91,o),
(337,-91,cs),
(344,-91,o),
(353,-89,o),
(361,-89,cs),
(385,-89,o),
(396,-114,o),
(416,-114,cs),
(431,-114,o),
(446,-102,o),
(462,-102,cs),
(477,-102,o),
(493,-112,o),
(508,-112,cs),
(525,-112,o),
(538,-94,o),
(556,-89,cs)
);
},
{
closed = 1;
nodes = (
(517,0,o),
(507,-13,o),
(495,-13,cs),
(484,-13,o),
(473,-6,o),
(462,-6,cs,{
name = hr01;
}),
(450,-6,o),
(438,-15,o),
(426,-15,c,{
name = hr02;
}),
(412,-13,o),
(405,3,o),
(386,3,cs),
(381,3,o),
(376,2,o),
(371,2,cs),
(352,2,o),
(345,23,o),
(334,28,cs),
(317,37,o),
(312,29,o),
(301,37,cs),
(288,45,o),
(289,63,o),
(279,71,cs),
(270,79,o),
(258,77,o),
(251,88,cs),
(243,101,o),
(248,110,o),
(240,123,cs),
(235,132,o),
(215,139,o),
(215,158,cs),
(215,163,o),
(217,169,o),
(217,174,cs),
(217,189,o),
(200,200,o),
(200,215,cs),
(200,226,o),
(208,237,o),
(208,248,cs),
(208,260,o),
(200,267,o),
(200,278,cs),
(200,294,o),
(217,308,o),
(217,324,cs),
(217,329,o),
(216,335,o),
(216,340,cs),
(216,359,o),
(235,363,o),
(242,376,cs),
(247,384,o),
(245,399,o),
(250,407,cs),
(257,416,o),
(271,416,o),
(279,424,cs),
(287,432,o),
(289,447,o),
(298,454,cs),
(307,462,o),
(323,460,o),
(334,466,cs),
(347,472,o),
(351,493,o),
(370,493,cs),
(376,493,o),
(381,492,o),
(387,492,cs),
(406,492,o),
(413,509,o),
(429,509,cs),
(439,509,o),
(451,500,o),
(461,500,cs),
(471,500,o),
(483,509,o),
(494,509,cs),
(513,509,o),
(516,491,o),
(535,491,cs),
(541,491,o),
(548,493,o),
(555,493,cs),
(575,493,o),
(576,474,o),
(589,467,cs),
(601,460,o),
(612,464,o),
(622,456,cs),
(632,449,o),
(630,436,o),
(639,428,cs),
(649,418,o),
(668,415,o),
(676,402,cs),
(680,394,o),
(677,379,o),
(681,371,cs),
(689,357,o),
(707,356,o),
(707,335,cs),
(707,329,o),
(706,323,o),
(706,318,cs),
(706,300,o),
(724,289,o),
(724,273,cs),
(724,264,o),
(716,254,o),
(716,245,cs),
(716,234,o),
(724,223,o),
(724,213,c),
(721,199,o),
(706,196,o),
(706,177,cs),
(706,171,o),
(707,164,o),
(707,157,cs),
(707,133,o),
(691,136,o),
(683,122,cs),
(677,111,o),
(677,94,o),
(670,84,cs),
(663,76,o),
(651,76,o),
(644,68,cs),
(636,60,o),
(632,45,o),
(622,38,cs),
(613,31,o),
(597,30,o),
(587,24,c),
(575,19,o),
(574,3,o),
(554,3,cs),
(549,3,o),
(544,4,o),
(539,4,cs),
(534,4,o),
(532,4,o),
(530,3,cs)
);
},
{
closed = 1;
nodes = (
(368,417,o),
(292,341,o),
(292,247,cs),
(292,153,o),
(368,77,o),
(462,77,cs),
(556,77,o),
(632,153,o),
(632,247,cs),
(632,341,o),
(556,417,o),
(462,417,cs)
);
},
{
closed = 1;
nodes = (
(505,117,l),
(420,117,l),
(420,292,l),
(366,292,l),
(366,360,l),
(557,360,l),
(557,292,l),
(505,292,l)
);
}
);
width = 923;
}
);
unicode = 63743;
},
{
glyphname = at;
layers = (
{
layerId = master01;
shapes = (
{
closed = 1;
nodes = (
(332,118,o),
(299,165,o),
(299,245,cs),
(299,326,o),
(346,385,o),
(412,385,cs),
(434,385,o),
(457,380,o),
(479,371,c),
(479,275,ls),
(479,182,o),
(441,118,o),
(387,118,cs,{
name = hr00;
})
);
},
{
closed = 1;
nodes = (
(534,-15,o),
(478,-31,o),
(413,-31,cs),
(246,-31,o),
(138,79,o),
(138,250,cs),
(138,421,o),
(246,531,o),
(413,531,cs),
(564,531,o),
(668,416,o),
(668,250,cs),
(668,173,o),
(633,119,o),
(584,119,cs),
(561,119,o),
(548,138,o),
(548,169,cs),
(548,409,l),
(516,429,o),
(458,444,o),
(411,444,cs),
(304,444,o),
(229,362,o),
(229,245,cs),
(229,130,o),
(286,58,o),
(376,58,cs),
(418,58,o),
(459,88,o),
(477,132,c),
(483,132,l),
(490,91,o),
(531,58,o),
(576,58,cs),
(671,58,o),
(736,136,o),
(736,250,cs),
(736,453,o),
(605,593,o),
(413,593,cs),
(204,593,o),
(70,458,o),
(70,250,cs),
(70,41,o),
(204,-93,o),
(413,-93,cs),
(491,-93,o),
(551,-75,o),
(611,-35,c),
(578,15,l)
);
}
);
width = 806;
}
);
unicode = 64;
},
{
glyphname = ampersand;
layers = (
{
layerId = master01;
shapes = (
{
closed = 1;
nodes = (
(312,378,ls),
(215,378,o),
(147,425,o),
(147,491,cs),
(147,554,o),
(192,592,o),
(267,592,cs),
(306,592,o),
(350,575,o),
(383,548,c),
(417,618,l),
(374,647,o),
(319,664,o),
(267,664,cs),
(142,664,o),
(67,599,o),
(67,491,cs),
(67,434,o),
(97,382,o),
(145,353,c),
(77,323,o),
(35,260,o),
(35,188,cs,{
name = hr01;
}),
(35,62,o),
(116,-14,o),
(251,-14,cs),
(411,-14,o),
(486,86,o),
(493,310,c),
(606,310,l),
(606,378,l)
);
},
{
closed = 1;
nodes = (
(166,58,o),
(115,107,o),
(115,188,cs),
(115,258,o),
(173,310,o),
(251,310,cs),
(417,310,l),
(417,142,o),
(362,58,o),
(251,58,cs)
);
}
);
width = 606;
}
);
unicode = 38;
},
{
glyphname = paragraph;
layers = (
{
layerId = master01;
shapes = (
{
closed = 1;
nodes = (
(258,504,l),
(303,504,l),
(303,-225,l),
(379,-225,l),
(379,504,ls),
(379,609,o),
(294,694,o),
(189,694,cs),
(84,694,o),
(0,609,o),
(0,504,cs),
(0,399,o),
(84,315,o),
(189,315,cs),
(198,315,o),
(208,315,o),
(217,316,c),
(217,-225,l),
(258,-225,l,{
name = hr00;
})
);
}
);
width = 469;
}
);
unicode = 182;
},
{
glyphname = section;
layers = (
{
layerId = master01;
shapes = (
{
closed = 1;
nodes = (
(302,-23,o),
(258,-67,o),
(186,-67,cs),
(145,-67,o),
(98,-52,o),
(62,-29,c),
(30,-87,l),
(71,-116,o),
(135,-134,o),
(195,-134,cs),
(305,-134,o),
(382,-59,o),
(382,48,cs),
(382,185,o),
(270,214,o),
(183,256,cs),
(74,308,l),
(67,300,l),
(113,139,o),
(302,188,o),
(302,48,cs,{
name = hr00;
})
);
},
{
closed = 1;
nodes = (
(112,583,o),
(156,627,o),
(228,627,cs),
(265,627,o),
(302,615,o),
(342,589,c),
(374,647,l),
(330,678,o),
(276,694,o),
(219,694,cs),
(109,694,o),
(32,619,o),
(32,512,cs),
(32,375,o),
(144,346,o),
(231,304,cs),
(340,252,l),
(347,260,l),
(301,421,o),
(112,372,o),
(112,512,cs)
);
}
);
width = 412;
}
);
unicode = 167;
},
{
glyphname = copyright;
layers = (
{
layerId = master01;
shapes = (
{
closed = 1;
nodes = (
(35,355,o),
(147,243,o),
(321,243,cs),
(490,243,o),
(607,359,o),
(607,529,cs),
(607,698,o),
(490,815,o),
(321,815,cs),
(147,815,o),
(35,702,o),
(35,529,cs,{
name = hr00;
})
);
},
{
closed = 1;
nodes = (
(85,673,o),
(178,767,o),
(321,767,cs),
(461,767,o),
(557,670,o),
(557,529,cs),
(557,388,o),
(461,291,o),
(321,291,cs),
(178,291,o),
(85,385,o),
(85,529,cs)
);
},
{
closed = 1;
nodes = (
(387,415,o),
(357,405,o),
(326,405,cs),
(268,405,o),
(231,452,o),
(231,523,cs),
(231,606,o),
(272,660,o),
(336,660,cs),
(359,660,o),
(386,651,o),
(411,634,c),
(425,687,l),
(397,705,o),
(368,713,o),
(336,713,cs),
(237,713,o),
(175,639,o),
(175,523,cs),
(175,420,o),
(235,352,o),
(326,352,cs),
(362,352,o),
(403,366,o),
(435,390,c),
(410,433,l)
);
}
);
width = 642;
}
);
unicode = 169;
},
{
glyphname = registered;
layers = (
{
layerId = master01;
shapes = (
{
closed = 1;
nodes = (
(35,355,o),
(147,243,o),
(321,243,cs),
(490,243,o),
(607,359,o),
(607,529,cs),
(607,698,o),
(490,815,o),
(321,815,cs),
(147,815,o),
(35,702,o),
(35,529,cs,{
name = hr00;
})
);
},
{
closed = 1;
nodes = (
(85,673,o),
(178,767,o),
(321,767,cs),
(461,767,o),
(557,670,o),
(557,529,cs),
(557,388,o),
(461,291,o),
(321,291,cs),
(178,291,o),
(85,385,o),
(85,529,c)
);
},
{
closed = 1;
nodes = (
(414,497,ls),
(409,507,o),
(405,513,o),
(401,517,c),
(431,536,o),
(448,566,o),
(448,602,cs),
(448,659,o),
(402,705,o),
(345,705,cs),
(215,705,l),
(215,360,l),
(272,360,l),
(272,501,l),
(343,501,ls),
(350,501,o),
(355,497,o),
(359,485,cs),
(411,349,l),
(463,367,l)
);
},
{
closed = 1;
nodes = (
(370,654,o),
(392,631,o),
(392,602,cs),
(392,574,o),
(370,550,o),
(343,550,cs),
(272,550,l),
(272,654,l),
(343,654,l)
);
}
);
width = 642;
}
);
unicode = 174;
},
{
glyphname = trademark;
layers = (
{
layerId = master01;
shapes = (
{
closed = 1;
nodes = (
(465,411,l),
(542,588,l),
(551,360,l),
(607,360,l),
(595,705,l),
(535,705,l),
(439,485,l),
(344,705,l),
(284,705,l),
(272,360,l),
(329,360,l),
(332,433,o),
(333,514,o),
(335,589,c),
(414,411,l,{
name = hr00;
})
);
},
{
closed = 1;
nodes = (
(248,705,l),
(8,705,l),
(8,655,l),
(100,655,l),
(100,360,l),
(156,360,l),
(156,655,l),
(248,655,l)
);
}
);
width = 662;
}
);
unicode = 8482;
},
{
glyphname = degree;
layers = (
{
layerId = master01;
shapes = (
{
closed = 1;
nodes = (
(10,484,o),
(55,439,o),
(126,439,cs),
(195,439,o),
(242,485,o),
(242,555,cs),
(242,624,o),
(195,671,o),
(126,671,cs),
(55,671,o),
(10,625,o),
(10,555,cs,{
name = hr00;
})
);
},
{
closed = 1;
nodes = (
(89,495,o),
(66,518,o),
(66,555,cs),
(66,590,o),
(89,614,o),
(125,614,cs),
(161,614,o),
(185,590,o),
(185,555,cs),
(185,518,o),
(161,495,o),
(125,495,cs)
);
}
);
width = 252;
}
);
unicode = 176;
},
{
glyphname = bar;
layers = (
{
layerId = master01;
shapes = (
{
closed = 1;
nodes = (
(182,-76,l),
(182,756,l),
(90,756,l),
(90,-76,l,{
name = hr00;
})
);
}
);
width = 272;
}
);
unicode = 124;
},
{
glyphname = brokenbar;
layers = (
{
layerId = master01;
shapes = (
{
closed = 1;
nodes = (
(182,418,l),
(182,700,l),
(90,700,l),
(90,418,l,{
name = hr00;
})
);
},
{
closed = 1;
nodes = (
(182,-76,l),
(182,262,l),
(90,262,l),
(90,-76,l)
);
}
);
width = 272;
}
);
unicode = 166;
},
{
glyphname = dagger;
layers = (
{
layerId = master01;
shapes = (
{
closed = 1;
nodes = (
(227,484,l),
(388,448,l),
(388,533,l),
(252,533,l),
(265,680,l),
(176,680,l),
(189,533,l),
(53,533,l),
(53,448,l),
(213,484,l,{
name = hr00;
})
);
},
{
closed = 1;
nodes = (
(180,369,l),
(213,465,l),
(227,465,l),
(261,369,l),
(261,-75,l),
(227,-227,l),
(213,-227,l),
(180,-75,l)
);
}
);
width = 433;
}
);
unicode = 8224;
},
{
glyphname = uni2113;
layers = (
{
layerId = master01;
shapes = (
{
closed = 1;
nodes = (
(75,110,ls),
(75,25,o),
(108,-14,o),
(179,-14,cs),
(211,-14,o),
(247,-2,o),
(283,21,c),
(253,75,l),
(235,63,o),
(213,55,o),
(196,55,cs),
(167,55,o),
(151,75,o),
(151,110,cs),
(151,640,l),
(75,630,l,{
name = hr00;
})
);
}
);
width = 263;
}
);
unicode = 8467;
},
{
glyphname = daggerdbl;
layers = (
{
layerId = master01;
shapes = (
{
closed = 1;
nodes = (
(227,484,l),
(388,448,l),
(388,533,l),
(252,533,l),
(265,680,l),
(176,680,l),
(189,533,l),
(53,533,l),
(53,448,l),
(213,484,l,{
name = hr00;
})
);
},
{
closed = 1;
nodes = (
(53,-80,l),
(189,-80,l),
(176,-227,l),
(265,-227,l),
(252,-80,l),
(388,-80,l),
(388,5,l),
(228,-31,l),
(213,-31,l),
(53,5,l)
);
},
{
closed = 1;
nodes = (
(227,-12,l),
(213,-12,l),
(180,84,l),
(180,369,l),
(213,465,l),
(227,465,l),
(261,369,l),
(261,84,l)
);
}
);
width = 433;
}
);
unicode = 8225;
},
{
glyphname = estimated;
layers = (
{
layerId = master01;
shapes = (
{
closed = 1;
nodes = (
(149,-17,o),
(44,95,o),
(44,259,cs),
(44,426,o),
(146,535,o),
(302,535,cs),
(456,535,o),
(553,432,o),
(561,259,c),
(157,259,l),
(157,78,l),
(198,39,o),
(247,19,o),
(302,19,cs),
(385,19,o),
(449,59,o),
(495,139,c),
(530,118,l),
(452,15,o),
(398,-17,o),
(302,-17,c,{
name = hr00;
})
);
},
{
closed = 1;
nodes = (
(448,440,l),
(406,480,o),
(357,500,o),
(301,500,cs),
(244,500,o),
(196,480,o),
(157,440,c),
(157,295,l),
(448,295,l)
);
}
);
width = 600;
}
);
unicode = 8494;
},
{
glyphname = Euro;
layers = (
{
layerId = master01;
shapes = (
{
closed = 1;
nodes = (
(367,248,l),
(172,248,l),
(170,264,o),
(170,281,o),
(170,300,cs),
(170,315,o),
(170,329,o),
(171,343,c),
(367,343,l),
(367,403,l),
(179,403,l),
(201,508,o),
(259,571,o),
(340,571,cs),
(390,571,o),
(445,555,o),
(473,533,c),
(507,589,l),
(466,617,o),
(402,636,o),
(347,636,cs),
(219,636,o),
(129,548,o),
(100,403,c),
(24,403,l),
(24,343,l),
(92,343,l),
(91,329,o),
(91,314,o),
(91,300,cs),
(91,282,o),
(91,264,o),
(93,248,c),
(24,248,l),
(24,188,l),
(101,188,l),
(128,56,o),
(206,-16,o),
(325,-16,cs),
(390,-16,o),
(453,0,o),
(499,27,c),
(468,87,l),
(468,87,o),
(417,55,o),
(327,55,cs),
(251,55,o),
(202,100,o),
(181,188,c),
(367,188,l,{
name = hr00;
})
);
}
);
width = 518;
}
);
unicode = 8364;
},
{
glyphname = cent;
layers = (
{
layerId = master01;
shapes = (
{
closed = 1;
nodes = (
(291,-85,l),
(301,56,l),
(370,58,o),
(426,81,o),
(476,129,c),
(439,181,l),
(404,149,o),
(355,129,o),
(306,127,c),
(332,512,l),
(361,509,o),
(390,499,o),
(419,484,c),
(439,548,l),
(406,567,o),
(373,579,o),
(337,583,c),
(346,705,l),
(293,705,l),
(284,582,l),
(156,570,o),
(75,464,o),
(75,304,cs),
(75,171,o),
(142,79,o),
(248,60,c),
(238,-85,l,{
name = hr00;
})
);
},
{
closed = 1;
nodes = (
(154,418,o),
(203,493,o),
(279,509,c),
(253,133,l),
(190,152,o),
(154,217,o),
(154,314,cs)
);
}
);
width = 518;
}
);
unicode = 162;
},
{
glyphname = currency;
layers = (
{
layerId = master01;
shapes = (
{
closed = 1;
nodes = (
(87,272,o),
(96,239,o),
(113,212,c),
(42,141,l),
(91,92,l),
(162,163,l),
(188,147,o),
(221,138,o),
(259,138,cs),
(296,138,o),
(329,147,o),
(356,164,c),
(428,93,l),
(477,142,l),
(405,214,l),
(421,240,o),
(431,273,o),
(431,310,cs),
(431,347,o),
(421,380,o),
(404,407,c),
(476,479,l),
(427,528,l),
(355,456,l),
(328,472,o),
(295,482,o),
(259,482,cs),
(221,482,o),
(188,472,o),
(161,456,c),
(90,527,l),
(41,478,l),
(112,407,l),
(96,380,o),
(87,347,o),
(87,310,cs,{
name = hr00;
})
);
},
{
closed = 1;
nodes = (
(151,375,o),
(193,418,o),
(259,418,cs),
(323,418,o),
(367,374,o),
(367,310,cs),
(367,245,o),
(323,202,o),
(259,202,cs),
(193,202,o),
(151,244,o),
(151,310,cs)
);
}
);
width = 518;
}
);
unicode = 164;
},
{
glyphname = dollar;
layers = (
{
layerId = master01;
shapes = (
{
closed = 1;
nodes = (
(261,-85,l),
(266,-14,l),
(378,-1,o),
(456,73,o),
(456,176,cs),
(456,254,o),
(412,312,o),
(336,337,cs),
(291,351,l),
(306,562,l),
(344,557,o),
(386,542,o),
(406,527,c),
(438,589,l),
(403,612,o),
(356,628,o),
(311,634,c),
(316,705,l),
(263,705,l),
(258,635,l),
(144,629,o),
(75,566,o),
(75,465,cs),
(75,390,o),
(118,328,o),
(185,307,cs),
(234,291,l),
(218,55,l),
(170,57,o),
(118,70,o),
(94,87,c),
(61,27,l),
(96,2,o),
(152,-12,o),
(213,-15,c),
(208,-85,l,{
name = hr00;
})
);
},
{
closed = 1;
nodes = (
(357,251,o),
(381,220,o),
(381,172,cs),
(381,113,o),
(337,70,o),
(271,58,c),
(286,274,l),
(306,268,ls)
);
},
{
closed = 1;
nodes = (
(149,521,o),
(188,557,o),
(253,564,c),
(240,367,l),
(220,374,ls),
(176,388,o),
(149,423,o),
(149,468,cs)
);
}
);
width = 518;
}
);
unicode = 36;
},
{
glyphname = franc;
layers = (
{
layerId = master01;
shapes = (
{
closed = 1;
nodes = (
(369,194,l),
(170,194,l),
(170,284,l),
(397,284,l),
(397,356,l),
(170,356,l),
(170,536,l),
(450,536,l),
(450,608,l),
(90,608,l),
(90,194,l),
(26,194,l),
(26,134,l),
(90,134,l),
(90,0,l),
(170,0,l),
(170,134,l),
(369,134,l,{
name = hr00;
})
);
}
);
width = 460;
}
);
unicode = 8355;
},
{
glyphname = lira;
layers = (
{
layerId = master01;
shapes = (
{
closed = 1;
nodes = (
(387,238,l),
(179,238,l),
(179,333,l),
(387,333,l),
(387,393,l),
(180,393,l),
(189,511,o),
(235,571,o),
(318,571,cs),
(356,571,o),
(389,565,o),
(417,552,c),
(448,612,l),
(413,628,o),
(373,636,o),
(326,636,cs),
(195,636,o),
(120,551,o),
(109,393,c),
(44,393,l),
(44,333,l),
(108,333,l),
(108,238,l),
(44,238,l),
(44,178,l),
(108,178,l),
(108,0,l),
(451,0,l),
(451,71,l),
(179,71,l),
(179,178,l),
(387,178,l,{
name = hr00;
})
);
}
);
width = 518;
}
);
unicode = 8356;
},
{
glyphname = sterling;
layers = (
{
layerId = master01;
shapes = (
{
closed = 1;
nodes = (
(108,268,l),
(108,0,l),
(451,0,l),
(451,71,l),
(179,71,l),
(179,268,l),
(387,268,l),
(387,333,l),
(179,333,l),
(179,352,ls),
(179,497,o),
(226,571,o),
(318,571,cs),
(356,571,o),
(389,565,o),
(417,552,c),
(448,612,l),
(413,628,o),
(373,636,o),
(326,636,cs),
(184,636,o),
(108,537,o),
(108,352,cs),
(108,333,l),
(44,333,l),
(44,268,l,{
name = hr00;
})
);
}
);
width = 518;
}
);
unicode = 163;
},
{
glyphname = yen;
layers = (
{
layerId = master01;
shapes = (
{
closed = 1;
nodes = (
(444,213,l),
(294,213,l),
(294,241,l),
(328,308,l),
(444,308,l),
(444,368,l),
(358,368,l),
(486,619,l),
(404,619,l),
(259,329,l),
(114,619,l),
(32,619,l),
(159,368,l),
(74,368,l),
(74,308,l),
(190,308,l),
(224,241,l),
(224,213,l),
(74,213,l),
(74,153,l),
(224,153,l),
(224,0,l),
(294,0,l),
(294,153,l),
(444,153,l,{
name = hr00;
})
);
}
);
width = 518;
}
);
unicode = 165;
},
{
glyphname = plus;
layers = (
{
layerId = master01;
shapes = (
{
closed = 1;
nodes = (
(223,275,l),
(223,99,l),
(295,99,l),
(295,275,l),
(471,275,l),
(471,347,l),
(295,347,l),
(295,523,l),
(223,523,l),
(223,347,l),
(47,347,l),
(47,275,l,{
name = hr00;
})
);
}
);
width = 518;
}
);
unicode = 43;
},
{
glyphname = minus;
layers = (
{
layerId = master01;
shapes = (
{
closed = 1;
nodes = (
(471,275,l),
(471,347,l),
(47,347,l),
(47,275,l,{
name = hr00;
})
);
}
);
width = 518;
}
);
unicode = 8722;
},
{
glyphname = multiply;
layers = (
{
layerId = master01;
shapes = (
{
closed = 1;
nodes = (
(259,260,l),
(405,114,l),
(456,165,l),
(310,311,l),
(456,457,l),
(405,508,l),
(259,362,l),
(113,508,l),
(62,457,l),
(208,311,l),
(62,165,l),
(113,114,l,{
name = hr00;
})
);
}
);
width = 518;
}
);
unicode = 215;
},
{
glyphname = divide;
layers = (
{
layerId = master01;
shapes = (
{
closed = 1;
nodes = (
(203,419,o),
(225,397,o),
(259,397,cs),
(293,397,o),
(315,419,o),
(315,453,cs),
(315,487,o),
(293,509,o),
(259,509,cs),
(225,509,o),
(203,487,o),
(203,453,cs,{
name = hr00;
})
);
},
{
closed = 1;
nodes = (
(471,275,l),
(471,347,l),
(47,347,l),
(47,275,l)
);
},
{
closed = 1;
nodes = (
(203,135,o),
(225,113,o),
(259,113,cs),
(293,113,o),
(315,135,o),
(315,169,cs),
(315,203,o),
(293,225,o),
(259,225,cs),
(225,225,o),
(203,203,o),
(203,169,cs)
);
}
);
width = 518;
}
);
unicode = 247;
},
{
glyphname = equal;
layers = (
{
layerId = master01;
shapes = (
{
closed = 1;
nodes = (
(47,437,l),
(47,365,l),
(471,365,l),
(471,437,l,{
name = hr00;
})
);
},
{
closed = 1;
nodes = (
(471,185,l),
(471,257,l),
(47,257,l),
(47,185,l)
);
}
);
width = 518;
}
);
unicode = 61;
},
{
glyphname = greater;
layers = (
{
layerId = master01;
shapes = (
{
closed = 1;
nodes = (
(112,88,l),
(75,149,l),
(349,311,l),
(75,473,l),
(112,534,l),
(448,335,l),
(448,286,l,{
name = hr00;
})
);
}
);
width = 518;
}
);
unicode = 62;
},
{
glyphname = less;
layers = (
{
layerId = master01;
shapes = (
{
closed = 1;
nodes = (
(406,88,l),
(443,149,l),
(169,311,l),
(443,473,l),
(406,534,l),
(70,335,l),
(70,286,l,{
name = hr00;
})
);
}
);
width = 518;
}
);
unicode = 60;
},
{
glyphname = approxequal;
layers = (
{
layerId = master01;
shapes = (
{
closed = 1;
nodes = (
(443,413,o),
(412,401,o),
(378,401,cs),
(295,401,o),
(217,471,o),
(138,471,cs,{
name = hr01;
}),
(105,471,o),
(75,460,o),
(47,437,c),
(47,361,l),
(75,384,o),
(105,395,o),
(138,395,cs),
(216,395,o),
(293,325,o),
(378,325,cs,{
name = hr02;
}),
(412,325,o),
(443,337,o),
(471,361,c),
(471,437,l)
);
},
{
closed = 1;
nodes = (
(75,208,o),
(105,219,o),
(138,219,cs),
(216,219,o),
(293,149,o),
(378,149,cs,{
name = hr03;
}),
(412,149,o),
(443,161,o),
(471,185,c),
(471,261,l),
(443,237,o),
(412,225,o),
(378,225,cs),
(295,225,o),
(217,295,o),
(138,295,cs,{
name = hr04;
}),
(105,295,o),
(75,284,o),
(47,261,c),
(47,185,l)
);
}
);
width = 518;
}
);
unicode = 8776;
},
{
glyphname = asciitilde;
layers = (
{
layerId = master01;
shapes = (
{
closed = 1;
nodes = (
(397,337,o),
(378,321,o),
(353,321,cs),
(296,321,o),
(239,398,o),
(165,398,cs),
(116,398,o),
(78,368,o),
(42,300,c),
(98,269,l),
(120,309,o),
(140,325,o),
(165,325,cs),
(222,325,o),
(279,248,o),
(353,248,cs),
(402,248,o),
(439,278,o),
(476,346,c),
(420,377,l,{
name = hr00;
})
);
}
);
width = 518;
}
);
unicode = 126;
},
{
glyphname = logicalnot;
layers = (
{
layerId = master01;
shapes = (
{
closed = 1;
nodes = (
(471,303,l),
(403,303,l),
(403,147,l),
(471,147,l,{
name = hr00;
})
);
},
{
ref = minus;
}
);
width = 518;
}
);
unicode = 172;
},
{
glyphname = asciicircum;
layers = (
{
layerId = master01;
shapes = (
{
closed = 1;
nodes = (
(36,320,l),
(97,283,l),
(259,557,l),
(421,283,l),
(482,320,l),
(284,656,l),
(235,656,l,{
name = hr00;
})
);
}
);
width = 518;
}
);
unicode = 94;
},
{
glyphname = infinity;
layers = (
{
layerId = master01;
shapes = (
{
closed = 1;
nodes = (
(630,145,o),
(684,204,o),
(684,310,cs),
(684,416,o),
(630,475,o),
(532,475,cs),
(454,475,o),
(408,425,o),
(368,369,c),
(329,425,o),
(281,475,o),
(202,475,cs),
(104,475,o),
(50,417,o),
(50,310,cs),
(50,204,o),
(104,145,o),
(202,145,cs),
(282,145,o),
(330,199,o),
(370,258,c),
(413,199,o),
(461,145,o),
(532,145,cs,{
name = hr00;
})
);
},
{
closed = 1;
nodes = (
(147,210,o),
(121,243,o),
(121,310,cs),
(121,378,o),
(146,410,o),
(197,410,cs),
(253,410,o),
(293,366,o),
(331,313,c),
(295,258,o),
(258,210,o),
(200,210,cs)
);
},
{
closed = 1;
nodes = (
(587,410,o),
(613,377,o),
(613,310,cs),
(613,242,o),
(589,210,o),
(537,210,cs),
(479,210,o),
(443,257,o),
(407,312,c),
(442,365,o),
(478,410,o),
(534,410,cs)
);
}
);
width = 734;
}
);
unicode = 8734;
},
{
glyphname = integral;
layers = (
{
layerId = master01;
shapes = (
{
closed = 1;
nodes = (
(166,-67,o),
(147,-94,o),
(109,-94,cs),
(90,-94,o),
(68,-88,o),
(30,-71,c),
(0,-125,l),
(40,-151,o),
(83,-165,o),
(119,-165,cs),
(203,-165,o),
(250,-106,o),
(250,-2,cs),
(250,556,ls),
(250,615,o),
(270,644,o),
(311,644,cs),
(330,644,o),
(351,638,o),
(390,621,c),
(420,675,l),
(380,701,o),
(337,715,o),
(301,715,cs),
(217,715,o),
(170,656,o),
(170,552,cs),
(170,-6,l,{
name = hr00;
})
);
}
);
width = 420;
}
);
unicode = 8747;
},
{
glyphname = Omega;
layers = (
{
layerId = master01;
shapes = (
{
closed = 1;
nodes = (
(712,585,o),
(597,696,o),
(404,696,cs),
(212,696,o),
(98,585,o),
(98,398,cs),
(98,302,o),
(142,220,o),
(224,164,c),
(224,72,l),
(90,72,l),
(90,0,l),
(298,0,l),
(298,186,l),
(225,221,o),
(178,304,o),
(178,398,cs),
(178,539,o),
(262,623,o),
(404,623,cs),
(546,623,o),
(632,538,o),
(632,398,cs),
(632,304,o),
(585,221,o),
(512,186,c),
(512,0,l),
(710,0,l),
(710,72,l),
(586,72,l),
(586,164,l),
(668,220,o),
(712,302,o),
(712,398,cs,{
name = hr00;
})
);
}
);
width = 810;
}
);
unicode = 8486;
},
{
glyphname = Delta;
layers = (
{
layerId = master01;
shapes = (
{
closed = 1;
nodes = (
(229,700,l),
(0,0,l),
(556,0,l),
(327,700,l,{
name = hr00;
})
);
},
{
closed = 1;
nodes = (
(450,72,l),
(106,72,l),
(278,609,l)
);
}
);
width = 556;
}
);
unicode = 8710;
},
{
glyphname = product;
layers = (
{
layerId = master01;
shapes = (
{
closed = 1;
nodes = (
(624,700,l),
(50,700,l),
(50,626,l),
(120,626,l),
(120,-150,l),
(200,-150,l),
(200,626,l),
(474,626,l),
(474,-150,l),
(554,-150,l),
(554,626,l),
(624,626,l,{
name = hr00;
})
);
}
);
width = 674;
}
);
unicode = 8719;
},
{
glyphname = summation;
layers = (
{
layerId = master01;
shapes = (
{
closed = 1;
nodes = (
(524,700,l),
(50,700,l),
(50,626,l),
(250,275,l),
(50,-76,l),
(50,-150,l),
(524,-150,l),
(524,-76,l),
(140,-76,l),
(340,275,l),
(140,626,l),
(524,626,l,{
name = hr00;
})
);
}
);
width = 554;
}
);
unicode = 8721;
},
{
glyphname = radical;
layers = (
{
layerId = master01;
shapes = (
{
closed = 1;
nodes = (
(607,730,l),
(423,730,l),
(215,-84,l),
(113,230,l),
(50,230,l),
(179,-150,l),
(277,-150,l),
(487,659,l),
(607,659,l,{
name = hr00;
})
);
}
);
width = 507;
}
);
unicode = 8730;
},
{
glyphname = partialdiff;
layers = (
{
layerId = master01;
shapes = (
{
closed = 1;
nodes = (
(160,474,o),
(57,362,o),
(57,225,cs),
(57,80,o),
(140,-14,o),
(268,-14,cs),
(400,-14,o),
(489,109,o),
(489,291,cs),
(489,522,o),
(361,674,o),
(128,720,c),
(111,662,l),
(251,640,o),
(347,565,o),
(390,449,c),
(363,464,o),
(326,474,o),
(287,474,cs,{
name = hr00;
})
);
},
{
closed = 1;
nodes = (
(417,143,o),
(360,52,o),
(268,52,cs),
(185,52,o),
(133,117,o),
(133,220,cs),
(133,326,o),
(206,408,o),
(301,408,cs),
(339,408,o),
(380,393,o),
(411,369,c),
(415,344,o),
(417,318,o),
(417,291,cs)
);
}
);
width = 541;
}
);
unicode = 8706;
},
{
glyphname = mu;
layers = (
{
layerId = master01;
shapes = (
{
closed = 1;
nodes = (
(75,-204,l),
(128,-204,l),
(136,31,l),
(159,0,o),
(191,-14,o),
(239,-14,cs),
(309,-14,o),
(369,29,o),
(408,99,c),
(428,-5,l),
(484,0,l),
(484,500,l),
(408,500,l),
(408,280,ls),
(408,152,o),
(338,54,o),
(252,54,cs),
(185,54,o),
(151,102,o),
(151,196,cs),
(151,500,l),
(75,500,l,{
name = hr00;
})
);
}
);
width = 569;
}
);
unicode = 181;
},
{
glyphname = percent;
layers = (
{
layerId = master01;
shapes = (
{
closed = 1;
nodes = (
(289,-85,l),
(555,705,l),
(481,705,l),
(215,-85,l,{
name = hr00;
})
);
},
{
closed = 1;
nodes = (
(291,544,o),
(240,616,o),
(153,616,cs),
(67,616,o),
(15,542,o),
(15,420,cs),
(15,298,o),
(67,224,o),
(153,224,cs),
(240,224,o),
(291,296,o),
(291,420,cs)
);
},
{
closed = 1;
nodes = (
(221,338,o),
(196,289,o),
(153,289,cs),
(111,289,o),
(85,339,o),
(85,420,cs),
(85,501,o),
(111,551,o),
(153,551,cs),
(196,551,o),
(221,502,o),
(221,420,cs)
);
},
{
closed = 1;
nodes = (
(479,76,o),
(530,4,o),
(617,4,cs),
(703,4,o),
(755,78,o),
(755,200,cs),
(755,322,o),
(703,396,o),
(617,396,cs),
(530,396,o),
(479,324,o),
(479,200,cs)
);
},
{
closed = 1;
nodes = (
(549,282,o),
(574,331,o),
(617,331,cs),
(659,331,o),
(685,281,o),
(685,200,cs),
(685,119,o),
(659,69,o),
(617,69,cs),
(574,69,o),
(549,118,o),
(549,200,cs)
);
}
);
width = 770;
}
);
unicode = 37;
},
{
glyphname = perthousand;
layers = (
{
layerId = master01;
shapes = (
{
closed = 1;
nodes = (
(289,-85,l),
(555,705,l),
(481,705,l),
(215,-85,l,{
name = hr00;
})
);
},
{
closed = 1;
nodes = (
(291,544,o),
(240,616,o),
(153,616,cs),
(67,616,o),
(15,542,o),
(15,420,cs),
(15,298,o),
(67,224,o),
(153,224,cs),
(240,224,o),
(291,296,o),
(291,420,cs)
);
},
{
closed = 1;
nodes = (
(221,338,o),
(196,289,o),
(153,289,cs),
(111,289,o),
(85,339,o),
(85,420,cs),
(85,501,o),
(111,551,o),
(153,551,cs),
(196,551,o),
(221,502,o),
(221,420,cs)
);
},
{
closed = 1;
nodes = (
(797,76,o),
(848,4,o),
(935,4,cs),
(1021,4,o),
(1073,78,o),
(1073,200,cs),
(1073,322,o),
(1021,396,o),
(935,396,cs),
(848,396,o),
(797,324,o),
(797,200,cs)
);
},
{
closed = 1;
nodes = (
(479,76,o),
(530,4,o),
(617,4,cs),
(703,4,o),
(755,78,o),
(755,200,cs),
(755,322,o),
(703,396,o),
(617,396,cs),
(530,396,o),
(479,324,o),
(479,200,cs)
);
},
{
closed = 1;
nodes = (
(867,282,o),
(892,331,o),
(935,331,cs),
(977,331,o),
(1003,281,o),
(1003,200,cs),
(1003,119,o),
(977,69,o),
(935,69,cs),
(892,69,o),
(867,118,o),
(867,200,cs)
);
},
{
closed = 1;
nodes = (
(549,282,o),
(574,331,o),
(617,331,cs),
(659,331,o),
(685,281,o),
(685,200,cs),
(685,119,o),
(659,69,o),
(617,69,cs),
(574,69,o),
(549,118,o),
(549,200,cs)
);
}
);
width = 1088;
}
);
unicode = 8240;
},
{
glyphname = lozenge;
layers = (
{
layerId = master01;
shapes = (
{
closed = 1;
nodes = (
(229,700,l),
(40,275,l),
(229,-150,l),
(327,-150,l),
(516,275,l),
(327,700,l,{
name = hr00;
})
);
},
{
closed = 1;
nodes = (
(278,633,l),
(433,275,l),
(278,-83,l),
(123,275,l)
);
}
);
width = 556;
}
);
unicode = 9674;
},
{
glyphname = commaaccent;
layers = (
{
layerId = master01;
shapes = (
{
closed = 1;
nodes = (
(101,-265,l),
(188,-83,l),
(179,-70,o),
(157,-60,o),
(136,-60,cs),
(101,-60,o),
(79,-79,o),
(77,-115,cs),
(68,-255,l)
);
}
);
width = 250;
}
);
},
{
glyphname = commaaccent.salt;
layers = (
{
layerId = master01;
shapes = (
{
closed = 1;
nodes = (
(111,791,l),
(24,609,l),
(33,596,o),
(55,586,o),
(76,586,cs),
(111,586,o),
(133,605,o),
(135,641,cs),
(144,781,l,{
name = hr00;
})
);
}
);
width = 176;
}
);
},
{
glyphname = dieresis;
layers = (
{
layerId = master01;
shapes = (
{
closed = 1;
nodes = (
(226,614,o),
(244,596,o),
(274,596,cs),
(302,596,o),
(322,615,o),
(322,644,cs),
(322,672,o),
(302,692,o),
(274,692,cs),
(244,692,o),
(226,673,o),
(226,644,cs,{
name = hr00;
})
);
},
{
closed = 1;
nodes = (
(48,614,o),
(66,596,o),
(96,596,cs),
(124,596,o),
(144,615,o),
(144,644,cs),
(144,672,o),
(124,692,o),
(96,692,cs),
(66,692,o),
(48,673,o),
(48,644,cs)
);
}
);
width = 370;
}
);
unicode = 168;
},
{
glyphname = dotaccent;
layers = (
{
layerId = master01;
shapes = (
{
closed = 1;
nodes = (
(30,608,o),
(52,586,o),
(88,586,cs),
(122,586,o),
(146,610,o),
(146,644,cs),
(146,678,o),
(122,702,o),
(88,702,cs),
(52,702,o),
(30,679,o),
(30,644,cs,{
name = hr00;
})
);
}
);
width = 176;
}
);
unicode = 729;
},
{
glyphname = grave;
layers = (
{
layerId = master01;
shapes = (
{
closed = 1;
nodes = (
(104,725,o),
(89,735,o),
(70,735,cs),
(49,735,o),
(31,716,o),
(20,682,c),
(200,535,l),
(224,560,l),
(122,700,ls,{
name = hr00;
})
);
}
);
width = 210;
}
);
unicode = 96;
},
{
glyphname = acute;
layers = (
{
layerId = master01;
shapes = (
{
closed = 1;
nodes = (
(65,535,l),
(245,682,l),
(233,716,o),
(216,735,o),
(195,735,cs),
(176,735,o),
(161,725,o),
(143,700,cs),
(41,560,l,{
name = hr00;
})
);
}
);
width = 210;
}
);
unicode = 180;
},
{
glyphname = hungarumlaut;
layers = (
{
layerId = master01;
shapes = (
{
closed = 1;
nodes = (
(197,535,l),
(335,692,l),
(319,720,o),
(300,735,o),
(283,735,cs),
(261,735,o),
(246,721,o),
(232,690,cs),
(169,555,l,{
name = hr00;
})
);
},
{
closed = 1;
nodes = (
(65,535,l),
(203,692,l),
(187,720,o),
(168,735,o),
(151,735,cs),
(129,735,o),
(114,721,o),
(100,690,cs),
(37,555,l)
);
}
);
width = 335;
}
);
unicode = 733;
},
{
glyphname = circumflex;
layers = (
{
layerId = master01;
shapes = (
{
closed = 1;
nodes = (
(288,537,l),
(171,644,l),
(54,537,l),
(30,562,l),
(127,699,ls),
(141,719,o),
(152,727,o),
(171,727,cs),
(189,727,o),
(200,720,o),
(215,699,cs),
(312,562,l,{
name = hr00;
})
);
}
);
width = 342;
}
);
unicode = 710;
},
{
glyphname = caron;
layers = (
{
layerId = master01;
shapes = (
{
closed = 1;
nodes = (
(200,544,o),
(189,537,o),
(171,537,cs),
(152,537,o),
(141,545,o),
(127,565,cs),
(30,702,l),
(54,727,l),
(171,620,l),
(288,727,l),
(312,702,l),
(215,565,ls,{
name = hr00;
})
);
}
);
width = 342;
}
);
unicode = 711;
},
{
glyphname = breve;
layers = (
{
layerId = master01;
shapes = (
{
closed = 1;
nodes = (
(30,619,o),
(78,571,o),
(152,571,cs),
(225,571,o),
(274,620,o),
(274,694,c),
(212,694,l),
(212,657,o),
(187,632,o),
(152,632,cs),
(116,632,o),
(92,656,o),
(92,694,c),
(30,694,l,{
name = hr00;
})
);
}
);
width = 304;
}
);
unicode = 728;
},
{
glyphname = ring;
layers = (
{
layerId = master01;
shapes = (
{
closed = 1;
nodes = (
(30,576,o),
(69,537,o),
(131,537,cs),
(191,537,o),
(232,577,o),
(232,638,cs),
(232,698,o),
(191,739,o),
(131,739,cs),
(69,739,o),
(30,699,o),
(30,638,cs,{
name = hr00;
})
);
},
{
closed = 1;
nodes = (
(81,668,o),
(100,688,o),
(131,688,cs),
(160,688,o),
(181,667,o),
(181,638,cs),
(181,608,o),
(160,588,o),
(131,588,cs),
(100,588,o),
(81,607,o),
(81,638,c)
);
}
);
width = 262;
}
);
unicode = 730;
},
{
glyphname = tilde;
layers = (
{
layerId = master01;
shapes = (
{
closed = 1;
nodes = (
(315,676,o),
(300,662,o),
(273,662,cs),
(232,662,o),
(186,692,o),
(137,692,cs,{
name = hr01;
}),
(89,692,o),
(62,658,o),
(50,584,c),
(97,576,l),
(101,606,o),
(116,620,o),
(144,620,cs),
(185,620,o),
(227,590,o),
(276,590,cs,{
name = hr02;
}),
(323,590,o),
(354,627,o),
(367,698,c),
(320,706,l)
);
}
);
width = 417;
}
);
unicode = 732;
},
{
glyphname = macron;
layers = (
{
layerId = master01;
shapes = (
{
closed = 1;
nodes = (
(344,605,l),
(344,677,l),
(73,677,l),
(73,605,l,{
name = hr00;
})
);
}
);
width = 417;
}
);
unicode = 175;
},
{
glyphname = cedilla;
layers = (
{
layerId = master01;
shapes = (
{
closed = 1;
nodes = (
(201,-88,o),
(219,-98,o),
(219,-118,cs),
(219,-139,o),
(201,-153,o),
(173,-153,cs),
(154,-153,o),
(126,-144,o),
(118,-136,c),
(95,-177,l),
(109,-191,o),
(148,-204,o),
(177,-204,cs),
(241,-204,o),
(281,-173,o),
(281,-122,cs),
(281,-80,o),
(246,-50,o),
(196,-50,c),
(212,24,l),
(163,24,l),
(139,-88,l),
(163,-88,ls,{
name = hr00;
})
);
}
);
width = 381;
}
);
unicode = 184;
},
{
glyphname = ogonek;
layers = (
{
layerId = master01;
shapes = (
{
closed = 1;
nodes = (
(194,-27,o),
(158,-75,o),
(158,-126,cs),
(158,-173,o),
(194,-207,o),
(244,-207,cs),
(275,-207,o),
(316,-188,o),
(332,-167,c),
(306,-133,l),
(294,-145,o),
(271,-155,o),
(255,-155,cs),
(233,-155,o),
(219,-139,o),
(219,-116,cs),
(219,-77,o),
(251,-35,o),
(308,0,c),
(252,0,l,{
name = hr00;
})
);
}
);
width = 474;
}
);
unicode = 731;
},
{
glyphname = dieresis.case;
layers = (
{
layerId = master01;
shapes = (
{
closed = 1;
nodes = (
(226,794,o),
(244,776,o),
(274,776,cs),
(302,776,o),
(322,795,o),
(322,824,cs),
(322,852,o),
(302,872,o),
(274,872,cs),
(244,872,o),
(226,853,o),
(226,824,cs,{
name = hr00;
})
);
},
{
closed = 1;
nodes = (
(48,794,o),
(66,776,o),
(96,776,cs),
(124,776,o),
(144,795,o),
(144,824,cs),
(144,852,o),
(124,872,o),
(96,872,cs),
(66,872,o),
(48,853,o),
(48,824,cs)
);
}
);
width = 370;
}
);
},
{
glyphname = dotaccent.case;
layers = (
{
layerId = master01;
shapes = (
{
closed = 1;
nodes = (
(30,788,o),
(52,766,o),
(88,766,cs),
(122,766,o),
(146,790,o),
(146,824,cs),
(146,858,o),
(122,882,o),
(88,882,cs),
(52,882,o),
(30,859,o),
(30,824,cs,{
name = hr00;
})
);
}
);
width = 176;
}
);
},
{
glyphname = grave.case;
layers = (
{
layerId = master01;
shapes = (
{
closed = 1;
nodes = (
(103,905,o),
(88,915,o),
(70,915,cs),
(49,915,o),
(31,896,o),
(20,862,c),
(200,715,l),
(224,740,l),
(122,880,ls,{
name = hr00;
})
);
}
);
width = 210;
}
);
},
{
glyphname = acute.case;
layers = (
{
layerId = master01;
shapes = (
{
closed = 1;
nodes = (
(65,715,l),
(245,862,l),
(233,896,o),
(216,915,o),
(195,915,cs),
(176,915,o),
(161,905,o),
(143,880,cs),
(41,740,l,{
name = hr00;
})
);
}
);
width = 210;
}
);
},
{
glyphname = hungarumlaut.case;
layers = (
{
layerId = master01;
shapes = (
{
closed = 1;
nodes = (
(197,715,l),
(335,872,l),
(319,900,o),
(300,915,o),
(283,915,cs),
(261,915,o),
(246,901,o),
(232,870,cs),
(169,735,l,{
name = hr00;
})
);
},
{
closed = 1;
nodes = (
(65,715,l),
(203,872,l),
(187,900,o),
(168,915,o),
(151,915,cs),
(129,915,o),
(114,901,o),
(100,870,cs),
(37,735,l)
);
}
);
width = 335;
}
);
},
{
glyphname = circumflex.case;
layers = (
{
layerId = master01;
shapes = (
{
closed = 1;
nodes = (
(288,717,l),
(171,824,l),
(54,717,l),
(30,742,l),
(127,879,ls),
(141,899,o),
(152,907,o),
(171,907,cs),
(189,907,o),
(200,900,o),
(215,879,cs),
(312,742,l,{
name = hr00;
})
);
}
);
width = 342;
}
);
},
{
glyphname = caron.case;
layers = (
{
layerId = master01;
shapes = (
{
closed = 1;
nodes = (
(200,724,o),
(189,717,o),
(171,717,cs),
(152,717,o),
(141,725,o),
(127,745,cs),
(30,882,l),
(54,907,l),
(171,800,l),
(288,907,l),
(312,882,l),
(215,745,ls,{
name = hr00;
})
);
}
);
width = 342;
}
);
},
{
glyphname = breve.case;
layers = (
{
layerId = master01;
shapes = (
{
closed = 1;
nodes = (
(30,799,o),
(78,751,o),
(152,751,cs),
(225,751,o),
(274,800,o),
(274,874,c),
(212,874,l),
(212,837,o),
(187,812,o),
(152,812,cs),
(116,812,o),
(92,836,o),
(92,874,c),
(30,874,l,{
name = hr00;
})
);
}
);
width = 304;
}
);
},
{
glyphname = ring.case;
layers = (
{
layerId = master01;
shapes = (
{
closed = 1;
nodes = (
(30,756,o),
(69,717,o),
(131,717,cs),
(191,717,o),
(232,757,o),
(232,818,cs),
(232,878,o),
(191,919,o),
(131,919,cs),
(69,919,o),
(30,879,o),
(30,818,cs,{
name = hr00;
})
);
},
{
closed = 1;
nodes = (
(81,848,o),
(100,868,o),
(131,868,cs),
(160,868,o),
(181,847,o),
(181,818,cs),
(181,788,o),
(160,768,o),
(131,768,cs),
(100,768,o),
(81,787,o),
(81,818,c)
);
}
);
width = 262;
}
);
},
{
glyphname = tilde.case;
layers = (
{
layerId = master01;
shapes = (
{
closed = 1;
nodes = (
(315,856,o),
(300,842,o),
(273,842,cs),
(232,842,o),
(186,872,o),
(137,872,cs,{
name = hr01;
}),
(89,872,o),
(62,838,o),
(50,764,c),
(97,756,l),
(101,786,o),
(116,800,o),
(144,800,cs),
(185,800,o),
(227,770,o),
(276,770,cs,{
name = hr02;
}),
(323,770,o),
(354,807,o),
(367,878,c),
(320,886,l)
);
}
);
width = 417;
}
);
},
{
glyphname = macron.case;
layers = (
{
layerId = master01;
shapes = (
{
closed = 1;
nodes = (
(344,785,l),
(344,857,l),
(73,857,l),
(73,785,l,{
name = hr00;
})
);
}
);
width = 417;
}
);
},
{
glyphname = caron.salt;
layers = (
{
layerId = master01;
shapes = (
{
closed = 1;
nodes = (
(71,657,ls),
(86,703,o),
(91,725,o),
(91,740,cs),
(91,766,o),
(76,780,o),
(44,780,cs),
(28,780,o),
(12,777,o),
(0,774,c),
(0,547,l),
(33,542,l,{
name = hr00;
})
);
}
);
width = 91;
}
);
},
{
glyphname = barra;
layers = (
{
layerId = master01;
shapes = (
{
closed = 1;
nodes = (
(382,367,l),
(0,367,l),
(0,317,l),
(382,317,l,{
name = hr00;
})
);
}
);
width = 382;
}
);
},
{
glyphname = eslash;
layers = (
{
layerId = master01;
shapes = (
{
closed = 1;
nodes = (
(33,234,l),
(289,418,l),
(257,462,l),
(0,278,l,{
name = hr00;
})
);
}
);
width = 289;
}
);
},
{
glyphname = ringacute;
layers = (
{
layerId = master01;
shapes = (
{
closed = 1;
nodes = (
(191,537,o),
(232,577,o),
(232,638,cs),
(232,662,o),
(225,684,o),
(211,702,c),
(299,774,l),
(288,804,o),
(274,819,o),
(257,819,cs),
(241,819,o),
(228,810,o),
(213,789,cs),
(171,732,l),
(157,737,o),
(143,739,o),
(131,739,cs),
(69,739,o),
(30,699,o),
(30,638,cs),
(30,576,o),
(69,537,o),
(131,537,c,{
name = hr00;
})
);
},
{
closed = 1;
nodes = (
(100,588,o),
(81,607,o),
(81,638,cs),
(81,668,o),
(100,688,o),
(131,688,cs),
(160,688,o),
(181,667,o),
(181,638,cs),
(181,608,o),
(160,588,o),
(131,588,c)
);
}
);
width = 262;
}
);
},
{
glyphname = ringacute.case;
layers = (
{
layerId = master01;
shapes = (
{
closed = 1;
nodes = (
(191,717,o),
(232,757,o),
(232,818,cs),
(232,842,o),
(225,864,o),
(211,882,c),
(299,954,l),
(288,984,o),
(274,999,o),
(257,999,cs),
(241,999,o),
(228,990,o),
(213,969,cs),
(171,912,l),
(157,917,o),
(143,919,o),
(131,919,cs),
(69,919,o),
(30,879,o),
(30,818,cs),
(30,756,o),
(69,717,o),
(131,717,c,{
name = hr00;
})
);
},
{
closed = 1;
nodes = (
(100,768,o),
(81,787,o),
(81,818,cs),
(81,848,o),
(100,868,o),
(131,868,cs),
(160,868,o),
(181,847,o),
(181,818,cs),
(181,788,o),
(160,768,o),
(131,768,c)
);
}
